<?xml version="1.0" encoding="utf-8"?>
<!-- Generator: Adobe Illustrator 24.3.0, SVG Export Plug-In . SVG Version: 6.00 Build 0)  -->
<svg version="1.1" id="Layer_1" xmlns="http://www.w3.org/2000/svg" xmlns:xlink="http://www.w3.org/1999/xlink" x="0px" y="0px"
	 viewBox="0 0 167.6 35.1" style="enable-background:new 0 0 167.6 35.1;" xml:space="preserve">
<style type="text/css">
	.st0{fill:#C9CACB;}
</style>
<g>
	<g>
		<path class="st0" d="M99.4,31.1c-0.5-0.2-1-0.5-1.5-0.7c-1.8-0.5-3.2-1.6-4.2-3.2c-1.6-2.6-3.1-5.3-4.7-7.9
			c0.2-0.1,0.3-0.3,0.4-0.3c1.8,0.1,3.2-0.6,3.8-2.4c0.7-2,0.4-3.8-0.9-5.4c-0.8-1.1-3.5-1.6-4.6-1c-0.3,0.2-0.5,0.7-0.6,1
			c-0.1,1.2,0,2.4,0,3.7c0,3.5,0.1,7,0,10.5c0,1.4,0.2,2.5,2.1,3.3c-1.7,0.2-3,0.1-4.2,0.1c-1.2,0-2.4,0-3.7-0.1
			c1.6-0.8,2-2.1,1.9-3.8c-0.1-3.9-0.1-7.7,0-11.6c0-1.6,0-3.2-1.6-4.3c1.1,0,2.3,0,3.4,0c2.3,0,4.6-0.1,6.9,0
			c4.6,0.2,7,4.3,4.8,8.3c-0.4,0.7-1.1,1.3-1.8,1.8c-0.7,0.4-1.6,0.6-2.4,0.9c0,0.1,0.1,0.3,0.2,0.3c1.4,0.2,2.1,1.1,2.8,2.3
			c0.9,1.8,2.1,3.4,3.2,5.1c0.6,0.9,1.4,1.6,2.1,2.4c0.2,0.2,0.3,0.6,0.5,0.9C100.9,31.1,100.1,31.1,99.4,31.1z"/>
		<path class="st0" d="M164.4,31.1c-0.6-0.2-1.3-0.5-1.9-0.7c-1.7-0.5-3.1-1.6-4-3.1c-1.6-2.6-3.1-5.3-4.8-8.1
			c0.4-0.1,0.8-0.2,1.1-0.1c1.8,0.1,2.8-0.9,3.3-2.5c0.6-1.8,0.4-3.5-0.7-5.1c-0.9-1.3-3.6-2-4.9-1.2c-0.3,0.2-0.5,0.7-0.6,1
			c-0.1,1.1,0,2.1,0,3.2c0,3.6,0.1,7.2,0,10.7c0,1.5,0.1,2.7,1.7,3.5c-1.2,0.3-2.4,0.2-3.6,0.2c-1.1,0-2.3,0-3.4,0
			c0-0.2,0-0.4,0-0.4c1.2-0.7,1.5-1.6,1.5-3c-0.1-4.3-0.1-8.6,0-12.9c0-1.4-0.1-2.6-2.1-3.3c0.9-0.1,1.2-0.2,1.6-0.2
			c2.9,0,5.9,0,8.8,0c0.5,0,1,0,1.5,0.1c2.7,0.4,4.3,2.2,4.4,4.9c0.1,1.9-0.2,3.6-1.8,4.8c-0.8,0.6-1.8,0.8-2.7,1.2
			c0,0,0,0.2,0.1,0.2c1.5,0.3,2.2,1.4,2.8,2.6c1.6,3,3.5,5.7,6,8.1C165.9,31.1,165.1,31.1,164.4,31.1z"/>
		<path class="st0" d="M39.9,16.9c0.9-4.6,3.8-7.1,8.2-8c3.1-0.6,6.3-0.3,9.2,1c0.9,0.4,1.3,0.9,1.3,1.9c-0.1,1.3,0,2.6-0.1,3.9
			c0,0.1-0.2,0.2-0.3,0.3c-0.1-0.1-0.3-0.2-0.4-0.4c-0.2-0.5-0.3-1.1-0.6-1.6c-1.8-4.3-6.6-5.4-10.1-2.3c-4.9,4.3-3.8,12.5,1.1,15.4
			c3.2,1.9,6.7,1.1,8.5-2.1c0.4-0.7,0.7-1.6,1-2.3c0.1-0.2,0.3-0.4,0.6-0.8c0.4,2,0.2,3.6,0.2,5.3c0,0.3-0.4,0.6-0.7,0.8
			c-3.9,1.8-8,2.3-12,0.5c-3.2-1.4-5.6-3.8-5.9-7.5C39.7,18.4,39.9,17.1,39.9,16.9z"/>
		<path class="st0" d="M16.8,25c0.6-0.8,0.9-1.7,1.1-2.7C19.1,18.1,18.8,14,17,10c-0.2-0.5-0.5-1.1-0.9-1.9c0.9,0.6,1.6,1.1,2.3,1.6
			c2.9,2.3,5.9,4.6,8.8,7c1.2,1,2.2,2.1,3.3,3.2c0.7,0.8,1.3,1.6,1.6,2.7c0.4,1.3,0.1,2.5-0.3,3.7c-0.2,0.7-0.5,1.4-1.1,2
			c-0.6-1.2-1.6-1.8-2.8-2.1c-0.5-0.1-1.1-0.3-1.6-0.3c-2.2-0.2-4.4,0-6.6,0.5c-4.5,0.9-8.9,2.4-13.1,4c-1.8,0.7-3.5,1.4-5.3,2.1
			c0,0-0.1,0-0.2,0c4.1-5.1,5.3-10.6,2.5-16.8c0.2,0.1,0.4,0.2,0.5,0.2c1.9,1,3.8,2,5.7,3c0.4,0.2,0.6,0.5,0.6,1
			c0.2,1.8,0.1,3.6-0.2,5.4c0,0.3,0,0.5,0,0.8c-0.1,0.1-0.1,0.1-0.2,0.2c0,0,0.1,0,0.1,0.1c0-0.1,0-0.2,0-0.3c0.1,0,0.1,0,0.2-0.1
			c1-2.6,1.4-5.3,1.2-8.1c-0.2-1.9-0.6-3.6-1.4-5.4C10,12.4,10,12.3,9.8,12c0.4,0.3,0.7,0.4,1,0.6c1.9,1.2,3.7,2.5,5.6,3.7
			c0.5,0.3,0.8,0.7,0.7,1.3c0,1.5,0,2.9,0,4.4c0,0.7-0.2,1.3-0.3,2C16.8,24.3,16.8,24.7,16.8,25c0,0.1,0,0.1-0.1,0.2
			C16.7,25.1,16.7,25,16.8,25z"/>
		<path class="st0" d="M18.1,2.6c0.4,0.2,0.8,0.3,1.1,0.6c2.2,1.5,4.2,3.1,6,5c1.1,1.3,2.1,2.7,2.4,4.4c0.2,0.8,0.1,1.6-0.3,2.3
			c-0.1,0-0.2-0.1-0.2-0.1c-0.8-1.8-2.2-2.9-3.9-3.8c-0.8-0.4-1.7-0.8-2.6-1.2C20.2,9.7,20,9.5,20,9c-0.1-2.1-0.9-4.1-1.8-5.9
			C18.2,3,18.2,2.8,18.1,2.6C18.2,2.6,18.1,2.6,18.1,2.6z"/>
		<path class="st0" d="M70.8,29.4c-5.5,0.3-10.2-4.6-10.2-10.7c0.1-5.1,4.2-10.3,10.7-10.2c5.7,0.1,10.1,5,10.1,10.6
			C81.3,25,76.6,29.7,70.8,29.4z M77.1,18c-0.2-0.9-0.4-2.7-1.1-4.4c-0.9-2.1-2.4-3.7-5-3.7c-2.3,0-3.7,1.4-4.7,3.2
			c-1.5,2.8-1.7,5.7-1.1,8.8c0.4,1.9,1.3,3.6,2.7,5c0.9,0.9,2,1.3,3.3,1.2c1.9-0.1,3.1-1.3,4.1-2.8C76.6,23.4,77,21.2,77.1,18z"/>
		<path class="st0" d="M127.6,28.9c1.9-1.7,1.9-1.7,0.9-4c-1.2-2.7-0.6-2.3-3.4-2.3c-1.1,0-2.3,0-3.4,0c-0.7,0-1.1,0.3-1.3,0.9
			c-0.2,0.6-0.5,1.2-0.8,1.8c-0.8,1.4-1,2.7,1.2,3.6c-2.2,0-4,0-6.3,0c1.9-0.7,2.3-2.1,2.8-3.3c2-5,4-10.1,6.1-15.1
			c0.5-1.2,1.5-1.7,2.7-1.2c0.4,0.2,0.7,0.7,0.9,1.1c1,2.4,2,4.8,2.9,7.1c1.2,3,2.3,6,3.6,8.9c0.4,0.9,1.1,1.7,1.7,2.5
			C132.8,28.9,130.2,28.9,127.6,28.9z M124.2,14.1c-1,2.5-1.9,4.7-2.8,7c1.9,0,3.7,0,5.6,0C126,18.7,125.2,16.6,124.2,14.1z"/>
		<path class="st0" d="M101.9,22.6c0.5,0.9,0.7,1.3,0.9,1.8c0.6,1.3,1.4,2.3,2.6,3.1c0.9,0.6,2,0.8,3.1,0.6c1.2-0.2,2.2-0.8,2.5-2
			c0.3-1.3,0.3-2.6-0.9-3.5c-0.6-0.5-1.3-0.9-2-1.2c-1-0.5-2-1-3.1-1.5c-2.4-1.1-3.8-4-3.1-6.6c0.7-2.6,2.7-4.3,5.6-4.5
			c1.7-0.1,3.4,0,5.1,0.5c1.4,0.5,1.5,0.5,1.5,1.9c0,1,0,2.1-0.4,3.2c-0.2-0.3-0.4-0.6-0.5-1c-0.7-1.4-1.3-2.7-2.9-3.3
			c-1.1-0.5-2.3-0.3-3.3,0.1c-2.3,1-2.6,3.4-0.8,5c0.6,0.5,1.3,0.9,2,1.2c1.2,0.5,2.4,0.9,3.6,1.5c2.1,1,3.2,2.7,3.3,5.1
			c0,2.5-1,4.4-3.1,5.5c-3.2,1.6-6.5,1.2-9.7-0.3c-0.2-0.1-0.5-0.4-0.5-0.6C101.6,26.1,101.4,24.5,101.9,22.6z"/>
		<path class="st0" d="M143.9,9.2c-1.4,1-1.4,2.5-1.4,4.1c0.1,3.9,0.1,7.7,0,11.6c0,1.6,0,3,2.1,4c-2.8,0-5.1,0-7.8,0
			c1.7-0.9,1.9-2.1,1.9-3.6c-0.1-4.1-0.1-8.3,0-12.4c0-1.5,0-2.8-2.1-3.7C139.4,9.2,141.7,9.2,143.9,9.2z"/>
		<path class="st0" d="M16.8,14.2c-0.2,0-0.3,0-0.4,0c-1-0.4-2-0.8-3-1.1C13.2,13,13,12.9,13,12.7c0.1-1.8-0.8-3.4-1.6-4.9
			c0-0.1-0.1-0.2-0.2-0.4c0.8,0.5,1.5,1,2.2,1.4c0.3,0.2,0.7,0.4,1,0.6c1.1,0.7,1.1,0.7,1.5,1.8C16.2,12.1,16.5,13.1,16.8,14.2z"/>
		<path class="st0" d="M6.6,16.3C6.8,14.4,5.9,13,5,11.5c0.2,0,0.3,0.1,0.4,0.1c1,0.5,2,1.1,3,1.6C8.7,13.4,9,13.6,9.1,14
			c0.3,1,0.6,2,1,3.1C8.9,16.8,7.8,16.6,6.6,16.3z"/>
		<path class="st0" d="M18.2,2.6c0,0-0.1,0-0.1-0.1C18.1,2.6,18.1,2.6,18.2,2.6C18.1,2.6,18.2,2.6,18.2,2.6z"/>
	</g>
</g>
</svg>
