<?xml version="1.0" encoding="utf-8"?>
<!-- Generator: Adobe Illustrator 24.3.0, SVG Export Plug-In . SVG Version: 6.00 Build 0)  -->
<svg version="1.1" id="Layer_1" xmlns="http://www.w3.org/2000/svg" xmlns:xlink="http://www.w3.org/1999/xlink" x="0px" y="0px"
	 viewBox="0 0 505 139.1" style="enable-background:new 0 0 505 139.1;" xml:space="preserve">
<style type="text/css">
	.st0{fill:#C9CACB;}
</style>
<g id="DAXLDt.tif">
	<g>
		<g>
			<path class="st0" d="M94.9,109.6c-0.1,1.6,0.7,3,1.1,4.5c0.4,2,1.1,3.9,1.6,5.8c0.3,0.9,0.2,1.1-0.7,1.1c-0.4,0-0.8,0-1.2,0
				c-24.5,0-49.1,0-73.6,0c-4.9,0-8.7-1.9-11.5-5.6c-1.4-1.8-2.3-4-2.5-6.5C7.3,103,7.6,97,7.6,91.1c-0.1-24,0-48,0-72.1
				c0-2.3,0.3-4.5,1.1-6.7c1.7-4.2,4.7-6.9,9.1-8.2c1.1-0.3,2.3-0.4,3.4-0.4c30.4,0,60.8,0,91.2,0c3.5,0,6.4,1.3,8.9,3.7
				c1.9,1.8,3.3,4,3.9,6.5c0.4,1.7,0.6,3.4,0.6,5.2c0,24.7,0,49.4,0,74.1c0,13.7,0,27.4,0,41.1c0,0.7,0.2,1.5-0.3,2.3
				c-1.3-1.1-2.5-2.1-3.8-3.1c-2.9-2.5-5.7-4.9-8.6-7.4c-1.2-1.1-2.5-2.1-3.6-3.2c-2.5-2.3-4.9-4.6-7.4-6.9
				c-2.1-1.9-4.2-3.9-6.3-5.8C95.7,109.9,95.2,109.8,94.9,109.6c-0.1-0.1-0.2-0.1-0.3-0.2C94.7,109.5,94.8,109.6,94.9,109.6z
				 M92,43.2c-1.9-0.8-3.9-1.5-5.8-2.3c-5-2-10.2-2.9-15.5-3.3c-4.9-0.4-9.7-0.1-14.5,0.8c-5,0.9-9.9,2.4-14.5,4.7
				c-0.4,0.2-0.9,0.3-1.3,0.5c2.4-2,5-3.8,7.9-5c2.8-1.2,5.6-2.2,8.8-3.4c-0.8-0.3-1.1-0.5-1.5-0.5c-1.3,0.1-2.7,0.1-4,0.4
				c-4.1,1-8.1,2.5-11.7,4.8c-1.7,1.1-3,2.4-3.8,4.3c-0.5,1.4-1.2,2.7-1.8,4.1c-1.7,4-3,8-4,12.2c-0.6,2.4-1.2,4.8-1.6,7.2
				c-0.4,3.2-1.1,6.4-0.9,9.6c0,0.6,0,1.2,0,1.8c-0.1,1,0.2,1.9,0.9,2.8c0.8,0.9,1.6,1.6,2.4,2.4c2.8,2.5,6.1,4.2,9.7,5.1
				c2,0.5,4,1.1,6.1,1c0.5,0,1-0.1,1.3-0.3c1.6-1.5,2.9-3.1,4-5c-6.5-2.8-9.9-5.1-10.9-7.3c2.3,1.1,4.6,2.2,7,3.3
				c4.8,2,9.8,3.2,15,3.7c5.2,0.5,10.4,0,15.5-1.3c4.2-1.1,8.2-2.6,12-4.7c0.6-0.3,1.2-0.6,1.8-0.9l0,0c-0.3,0.5-0.4,1-0.8,1.4
				c-2.7,2.5-5.8,4.3-9.3,5.5c-0.4,0.1-0.8,0.3-1.2,0.5c1.3,1.5,2.5,2.9,3.6,4.4c0.5,0.7,0.9,0.9,1.7,0.8c2.7-0.1,5.3-0.7,7.9-1.5
				c4.3-1.4,7.9-3.8,10.8-7.2c0.6-0.7,0.9-1.5,0.9-2.4c0-3-0.3-6-0.8-9c-0.4-2.1-0.5-4.3-0.9-6.4c-1.6-7-3.9-13.8-6.9-20.3
				c-0.6-1.4-1.6-2.4-2.9-3.3c-4.6-3-9.6-4.8-15-5.7c-1-0.2-2.2-0.4-2.8,1c0.1,0.1,0.2,0.2,0.3,0.2c4.7,1.5,9.2,3.5,13.3,6.1
				C91.2,42.3,91.6,42.8,92,43.2C92,43.2,92,43.2,92,43.2z"/>
			<path class="st0" d="M447.2,92.1c-0.7,0-1.1,0-1.5,0c-5.2,0-10.5,0-15.7,0c-1.2,0-1.9-0.4-2.6-1.4c-3.6-5-7.3-9.8-10.9-14.8
				c-0.5-0.6-0.9-1.4-1.3-2c-0.4-0.5-0.7-0.9-1.5-1c-1.7-0.1-2.1,0.1-2.1,1.9c0,5,0,10,0,15.1c0,0.7,0,1.3,0,2.1c-5.1,0-10,0-15,0
				c0-19.9,0-39.6,0-59.6c0.4-0.1,0.8-0.2,1.3-0.2c7.8,0,15.6-0.1,23.5,0c3.7,0.1,7.4,0.7,10.8,2.3c5.1,2.3,8.3,6.2,9.7,11.7
				c0.7,2.8,1,5.7,0.7,8.6c-0.4,3.6-1.2,7.2-3.2,10.3c-1.3,2-2.9,3.7-5,4.8c-1,0.5-2.1,1-3.2,1.6c2.5,3.6,5.3,6.8,7.9,10.2
				C441.6,85.2,444.4,88.5,447.2,92.1z M411.7,59.9c3.3,0,6.3,0,9.3,0c3.8,0,6.1-2.2,6.5-6c0.4-4.4-2.1-7.3-6.6-7.5
				c-2.6-0.1-5.3,0-7.9,0c-0.4,0-0.9,0.1-1.4,0.1C411.7,51.1,411.7,55.4,411.7,59.9z"/>
			<path class="st0" d="M388.3,62c0,3.7,0,7.5,0,11.2c0,5.1-2,9.4-5.7,12.9c-2.9,2.8-6.5,4.6-10.4,5.6c-3,0.8-6,1.4-9.2,1.2
				c-6.7-0.3-12.9-2-18.1-6.4c-3-2.5-4.9-5.9-5.7-9.7c-0.4-1.7-0.4-3.3-0.4-5c0-7.1,0-14.3,0-21.4c0-3,0.9-5.7,2.5-8.2
				c3.6-5.8,9-8.7,15.5-9.9c2.7-0.5,5.3-1,8-0.8c5.9,0.4,11.4,2,16.3,5.7c3.9,2.9,5.9,6.9,7,11.4c0.1,0.5,0.1,1.1,0.1,1.6
				C388.3,54.1,388.3,58,388.3,62C388.3,62,388.3,62,388.3,62z M354,62.2c0,3.5,0,6.9,0,10.4c0,1,0.3,1.8,0.8,2.6
				c0.8,1.3,2.1,2,3.4,2.6c2.1,0.9,4.2,0.8,6.4,0.8c2.2,0,4.1-0.6,5.9-1.8c1.7-1.1,2.7-2.7,2.7-4.9c-0.1-6.7,0-13.4,0-20.1
				c0-2.1-0.8-3.6-2.6-4.7c-4.1-2.5-8.4-2.6-12.7-0.8c-2.7,1.1-4,3.2-3.9,6.2C354.1,55.8,354,59,354,62.2z"/>
			<path class="st0" d="M465.9,46.5c0,8.1,0,16,0,24.2c-1.5-1.4-2.8-2.5-4-3.6c-2.1-1.8-4.2-3.6-6.2-5.5c-1.4-1.3-2.8-2.5-4.2-3.8
				c-0.3-0.3-0.4-0.8-0.6-1.2c-0.1-0.2,0-0.5,0-0.8c0-7.2,0-14.4,0-21.6c0-1.9,0.1-2,1.9-2c7.4,0,14.8-0.2,22.2,0.1
				c5.7,0.2,11.2,1.8,15.6,5.7c2.9,2.5,4.8,5.8,5.5,9.6c0.3,1.2,0.4,2.5,0.4,3.8c0,7.6,0.1,15.2,0,22.8c-0.1,4.2-1.7,7.8-4.5,10.9
				c-3.2,3.5-7.3,5.3-12,6.2c-2.7,0.5-5.3,0.8-8,0.8c-6.3,0-12.6,0-19,0c-0.7,0-1.3,0-2.1,0c0-4.8,0-9.3,0-14
				c0.5-0.5,1.2-0.2,1.9-0.2c6.7,0,13.5,0,20.2,0c1.2,0,2.4-0.2,3.6-0.4c3-0.5,4.8-3.4,4.8-5.9c0-2.6,0-5.3,0-7.9
				c0-3.5,0-7.1,0-10.6c0-1.2-0.3-2.4-0.8-3.5c-1-2-2.9-2.8-4.8-3C472.6,46.3,469.3,46.5,465.9,46.5z"/>
			<path class="st0" d="M165.2,92c0-4.8,0-9.3,0-14.1c0.6,0,1.2-0.1,1.8-0.1c7,0,14,0,21,0c1.2,0,2.4-0.2,3.6-0.6
				c3-1,4.1-3.4,4.1-6.3c0.1-6,0.1-11.9,0-17.9c0-1-0.3-2.1-0.7-3.1c-0.9-2.4-3-3.3-5.3-3.4c-3-0.2-6.1,0-9.1,0
				c-0.1,0.1-0.2,0.1-0.2,0.2c0,0-0.1,0.1-0.1,0.2c0,0.1,0,0.1,0,0.2c0,7.7,0,15.5,0,23.2c-0.9,0-1.4-0.6-1.9-1
				c-3.5-3.2-7-6.4-10.5-9.6c-2.6-1.2-2.8-3.3-2.8-5.9c0.1-6.4,0-12.9,0-19.3c0-0.7,0-1.3,0-2.2c0.9,0,1.5,0,2.2,0
				c6.7,0,13.5,0,20.2,0c4.2,0,8.3,0.7,12.2,2.5c4.8,2.2,8.5,5.7,10.1,10.9c0.7,2.1,1.1,4.3,1.1,6.5c0,6.8,0,13.6,0,20.4
				c0,4.1-1.2,7.8-3.5,11.2c-1.9,2.7-4.5,4.6-7.5,5.9c-1.8,0.8-3.7,1.5-5.8,1.7c-1.7,0.2-3.4,0.7-5.2,0.7c-7.5,0.1-15.1,0-22.6,0
				C165.9,92.1,165.6,92.1,165.2,92z"/>
			<path class="st0" d="M250.2,73c1.6,1.9,3.6,3.3,5.9,4.3c3.2,1.4,6.6,1.9,10,1c1-0.3,2-0.9,2.8-1.6c1.1-1,0.9-3.5,0-4.6
				c-1.6-1.9-3.8-2.5-6-3.1c-2.4-0.6-4.8-1.1-7.2-1.6c-3.4-0.8-6.4-2.5-8.9-4.9c-2.3-2.1-4-4.8-4.8-7.8c-0.4-1.7-0.9-3.6-0.8-5.3
				c0.1-3.2,0.9-6.2,2.7-8.9c2.1-3.1,5-5.2,8.4-6.7c4.4-1.9,9.1-2.5,13.9-2c6.1,0.6,11.4,3.1,15.6,7.7c0.5,0.5,0.9,1,1.4,1.5
				c-0.8,1.2-5,4.6-9.8,7.9c-0.2-0.2-0.5-0.3-0.7-0.6c-2.4-2.6-5.5-3.8-8.9-4.2c-2.3-0.3-4.4,0.4-6.1,2.1c-1.9,1.8-1.8,4.2,0.1,6
				c0.8,0.8,1.8,1.4,2.9,1.7c2.3,0.6,4.6,1.4,7,1.9c4.4,0.9,8.4,2.4,11.9,5.2c2.7,2.2,4.2,5.2,4.9,8.6c0.3,1.7,0.5,3.3,0.4,5
				c0,3.6-1.2,6.8-3.4,9.7c-3.2,4.1-7.5,6.4-12.4,7.8c-1.9,0.5-3.9,1-6,0.9c-0.8,0-1.6,0.4-2.4,0.3c-5-0.4-9.7-1.9-13.6-5
				c-2.2-1.7-4.1-3.7-6.3-5.6C243.5,78.8,247.1,76.2,250.2,73z"/>
			<path class="st0" d="M334.4,45.3c-4.1,1.7-8.1,3.3-12.2,4.9c-1.5-2-3.1-3.6-5.6-4.3c-3.1-0.8-6.1-0.7-8.9,1c-2.2,1.3-3,3.2-3,5.5
				c-0.1,4.3,0,8.7,0,13c0,2,0,4.1,0,6.1c0,3.2,1.6,5.2,4.6,6.4c3.4,1.3,6.5,1,9.4-1c1.2-0.9,2.1-2.2,3.1-3.4c1.5,0.6,3.1,1.3,4.7,2
				c2.4,1.1,4.8,2.2,7.1,3.4c1,0.5,1,0.6,0.5,1.5c-0.6,1.1-1.3,2.3-2.1,3.2c-2.4,2.7-5,5.2-8.3,6.7c-2.7,1.2-5.5,2-8.5,2.3
				c-2.2,0.2-4.3,0-6.4-0.2c-3.5-0.4-6.8-1.5-9.9-3.4c-4.4-2.7-7.4-6.4-8.7-11.4c-0.4-1.4-0.7-2.9-0.7-4.3c-0.1-7.5-0.1-15.1,0-22.6
				c0.1-3.6,1.4-7,3.5-9.9c3.5-4.9,8.4-7.3,14.2-8.5c2.3-0.5,4.6-1,7-0.8c5.6,0.4,10.7,2,14.8,6.1C331.2,39.8,333.1,42.1,334.4,45.3
				z"/>
			<path class="st0" d="M219,92.1c0-20.1,0-39.9,0-59.8c5,0,9.8,0,14.9,0c0,0.4,0.1,0.9,0.1,1.3c0,18.8,0,37.6,0,56.4
				c0,0.2,0,0.4,0,0.6c-0.1,1.2-0.2,1.4-1.5,1.4c-3.5,0-6.9,0-10.4,0C221.2,92.1,220.2,92.1,219,92.1z"/>
			<path class="st0" d="M54.5,59.5c3.2,0.1,5.7,2.2,6.5,5.3c0.9,3.2-0.1,5.8-2.4,8c-2.2,2.1-6.1,2-8.3,0c-1.8-1.7-2.9-3.7-2.7-6.2
				c0.2-3.1,2.1-5.7,5-6.7C53.2,59.5,53.9,59.5,54.5,59.5z"/>
			<path class="st0" d="M86,66.7c0.2,2.9-1.4,5-3.6,6.5c-2.8,2-6.6,1-8.7-1.6c-1.1-1.3-1.5-2.9-1.7-4.4c-0.1-1.6,0.3-3.4,1.3-4.7
				c1-1.3,2.2-2.5,3.9-2.8c3.5-0.6,6.6,0.6,8.1,4.4C85.8,64.9,85.8,65.8,86,66.7z"/>
			<path class="st0" d="M92,43.2c0.1,0,0.3,0,0.4,0c0.1,0,0.2,0.1,0.3,0.2c-0.2,0-0.3,0.1-0.5,0.1C92.2,43.5,92.1,43.3,92,43.2
				L92,43.2z"/>
			<path class="st0" d="M92.9,77.9c0.1-0.1,0.1-0.2,0.2-0.3C93,77.7,92.9,77.8,92.9,77.9L92.9,77.9z"/>
		</g>
	</g>
</g>
</svg>
