<?xml version="1.0" encoding="utf-8"?>
<!-- Generator: Adobe Illustrator 24.3.0, SVG Export Plug-In . SVG Version: 6.00 Build 0)  -->
<svg version="1.1" id="Layer_1" xmlns="http://www.w3.org/2000/svg" xmlns:xlink="http://www.w3.org/1999/xlink" x="0px" y="0px"
	 viewBox="0 0 60 60" style="enable-background:new 0 0 60 60;" xml:space="preserve">
<style type="text/css">
	.st0{fill:#898995;}
</style>
<g>
	<path class="st0" d="M6.8,21.7c1.1-5.3,3.8-9.5,8.3-12.5c4.4-3,9.3-4.5,14.6-4.5S39.4,6.3,43,9.6c3.6,3.3,5.3,7.9,5.3,13.8v22.2
		c0,1.7,0.3,3.3,1,4.6c0.7,1.3,2,2.8,3.9,4.4H33.7V40.2c-0.7,4.5-2.1,8.1-4.3,10.9c-2.2,2.8-5.4,4.2-9.4,4.2c-3.5,0-6.6-1.2-9.2-3.6
		c-2.6-2.4-4-5.5-4-9.3c0-3.7,1.2-6.9,3.6-9.4c2.4-2.5,5.4-4.3,9-5.3s7.8-1.5,12.4-1.5h0.7v-2.7c0-2.3-0.8-4.1-2.4-5.4
		c-1.6-1.3-3.9-2-6.8-2C17,16.2,11.5,18,6.8,21.7z M22,39.7c0,1.5,0.4,2.8,1.3,3.9c0.8,1.1,2,1.6,3.5,1.6c1.7,0,3.1-0.7,4.2-2
		c1-1.3,1.5-3.1,1.5-5.3v-6.9h-0.2c-3.3,0-5.8,0.8-7.6,2.5C22.9,35,22,37.1,22,39.7z"/>
</g>
</svg>
