<?xml version="1.0" encoding="utf-8"?>
<!-- Generator: Adobe Illustrator 24.3.0, SVG Export Plug-In . SVG Version: 6.00 Build 0)  -->
<svg version="1.1" id="Layer_1" xmlns="http://www.w3.org/2000/svg" xmlns:xlink="http://www.w3.org/1999/xlink" x="0px" y="0px"
     viewBox="0 0 700 700" style="enable-background:new 0 0 700 700;" xml:space="preserve">
<style type="text/css">
    .st0{fill:none;stroke:#D0D1D2;stroke-miterlimit:10;}
</style>
<g id="VsT3ZT_2_">
    <g>
        <g>
            <path vector-effect="non-scaling-stroke" class="st0" d="M428.5 11.5L350.5 13.5V22.5L355.5 31.5L350.5 47.5L354 50H358L359.5 59H332.5L330 54L326.5 59L287 61L285 56L288.5 51.5L283.5 47.5L282 38L280 35.5V45.5L278 50L279 56L273.5 61H254V82L332.5 80.5L335.5 116.5L333 113.5C330.6 111.1 326 109.167 324 108.5V112.5L328 119L320 131L292 101.5L269.5 93.5L192.5 95L188 98V105L181 106V171L188 172.5L189.5 113.5H192.5L193.5 124L199 125.5V113.5H204.5L205.5 125.5H214.5L216.5 157.5H222V113.5H226L228.5 124H232.5V113.5H239.5V127L248.5 128V133.5L232.5 136.5L231 185L250.5 196.5L266 219L272 217L269.5 222.5L280 242.5L273.5 245L268 232L264.5 234.5L278 283L285 280L288.5 283L292 281L282 255.5L290.5 253.5L300.5 282L292 286L295 291.5L304 289L314 313.5L297.5 319L285 288L279 293.5L296 336.5H300.5V328L309.5 326.5L318 344.5L300.5 350.5L322 411L311 419.5V423L293.5 434.5L207 319H201L199 322L277 425L279 431.5L284 434.5L311 465.5L316.5 476V483L321 492.5L327 494.5L330.5 490H339L343.5 497.5L342 506.5L333 507.5L327 501L324.5 504.5L339 516.5V526H343.5L354.5 533.5L353 537L357.5 538.5V542L353 543L357.5 556H361.5L363.5 562.5V577L366 587L378.5 600.5L369.5 614.5L366 626L368 659.5L373.5 662V666L384.5 678.5L406.5 687.5L421 689.5L424.5 682H435L437 675.5L431 662L443 633.5L450.5 629.5V593.5L458 577L469.5 570L474 560L466.5 552.5V543L463 531.5L469.5 524V519L471 515L468.5 512.5L472.5 504.5L471 498.5L487 465.5L482 446.5L486 445.5L490 434L487 422.5H483.5L475 409.5L474 398L475 390.5L476.5 388H472.5L469.5 383.5L477.5 345.5L482 342.5L487 328L480.5 321.5L482 317L486 315.5L487 307.5L483.5 304V296.5L487 293V290.5L482 289L480.5 286.5L483.5 281L485 269L483.5 265.5L482 259H479.5V252.5L483.5 238H491L495 230.5V224L504.5 203L506.5 191.5L510 171.5L513 169.5V179.5L515 180.5L519 155.5L497.5 145.5L494 147.5L491 141.5L494 116L502 114L497.5 109L500 80L506.5 71.5H502V43.5L428.5 11.5Z"/>
        </g>
    </g>
</g>
</svg>