<?xml version="1.0" encoding="utf-8"?>
<!-- Generator: Adobe Illustrator 24.3.0, SVG Export Plug-In . SVG Version: 6.00 Build 0)  -->
<svg version="1.1" id="Layer_1" xmlns="http://www.w3.org/2000/svg" xmlns:xlink="http://www.w3.org/1999/xlink" x="0px" y="0px"
     viewBox="0 0 544 145" style="enable-background:new 0 0 544 145;" xml:space="preserve">
<style type="text/css">
    .st0{fill:#C9CACB;}
</style>
<g id="DW4elS_1_">
    <g>
        <g>
            <path fill-rule="evenodd" clip-rule="evenodd" class="st0" d="M65.1763 0H64.9559L0.998718 36.1396V110.17L1.21912 110.053V110.391L65.1763 145L129.571 109.516V36.36L65.1763 0.220423L65.1757 0.220781L65.1763 0ZM17.6463 44.4658L17.6491 101.413L65.3972 127.908L113.145 101.849V81.2589L64.9582 56.0694V76.2222L95.1845 90.0204L65.3958 106.009L36.4852 91.3346L36.485 91.3345V55.1949L65.1777 38.1107L113.144 64.3933V42.928L65.1777 17.3037L17.6463 44.4658Z" />
            <path class="st0" d="M243.252 101.775C238.653 102.648 234.271 103.527 229.671 103.965C225.292 104.397 220.91 104.626 216.528 104.626C206.016 104.626 197.69 101.781 191.777 96.0884C185.861 90.3899 183.016 82.5049 183.016 72.4296C183.016 61.2588 186.301 52.7187 192.873 46.5845C199.444 40.4503 208.643 37.3828 220.47 37.3828C222.879 37.3828 225.727 37.6032 229.013 37.8207C232.299 38.0382 236.681 38.6965 242.373 39.5723L242.811 52.0597C239.305 50.746 235.581 49.8703 231.861 49.212C228.137 48.5566 224.413 48.3362 220.91 48.3362C213.025 48.3362 207.112 50.3081 203.168 54.2522C199.006 58.1932 197.037 63.8889 197.037 71.5559C197.037 78.5651 199.009 83.82 203.168 87.326C207.329 90.8293 213.245 92.5809 221.13 92.5809C222.882 92.5809 224.633 92.5809 226.167 92.3663C227.701 92.1488 229.232 91.9313 230.546 91.4905C230.767 89.0806 230.984 86.8911 231.205 84.7015C231.422 82.5121 231.422 80.3197 231.422 78.1301V76.3785H220.251L220.91 65.6456H245.878C245.22 70.9033 244.782 76.596 244.344 82.5118C243.844 88.9241 243.48 95.3462 243.251 101.774L243.252 101.775ZM317.285 38.9128L289.901 95.6398C289.534 96.6908 289.096 97.7158 288.59 98.708C287.929 100.022 287.494 101.556 286.839 103.528H268.877C268.594 101.575 268.08 99.6633 267.345 97.8322C267.125 97.3943 267.125 96.9535 266.908 96.736L248.727 39.1339H263.183C263.401 40.0097 263.401 40.8855 263.839 41.9816C264.059 43.0749 264.5 44.6091 265.373 46.7985L278.954 91.9198L299.323 48.9877C299.538 48.3293 299.981 47.236 300.631 45.7019C301.295 44.1678 301.95 41.9784 302.826 39.1305H317.277V38.913H317.285L317.285 38.9128ZM339.401 103.31C339.621 102.211 339.839 100.898 340.062 99.5838C340.282 98.0527 340.282 96.0835 340.5 93.0123L341.376 78.9966C340.598 79.48 339.793 79.9186 338.966 80.3103C338.093 80.7482 337.432 80.9686 336.559 81.4065L329.982 83.596C327.143 84.4718 325.168 85.3476 324.289 86.2234C323.416 87.0992 322.975 88.1953 322.975 89.7266C322.975 91.2579 323.416 92.5715 324.504 93.4473C325.603 94.3289 327.137 94.7639 329.109 94.7639C329.982 94.7639 330.86 94.5464 331.951 94.3289C333.047 94.1143 334.578 93.6648 336.553 93.2298L333.702 103.313C332.174 103.745 330.637 103.969 329.326 104.186C327.795 104.401 326.476 104.621 325.388 104.621C320.562 104.621 316.627 103.313 313.771 100.683C310.932 98.0554 309.609 94.5522 309.609 90.1703C309.609 86.4467 310.708 83.3785 312.683 80.9714C314.655 78.5645 317.941 76.8099 322.096 75.4963L332.174 72.4281C335.674 71.3347 338.093 70.4589 339.18 69.5831C340.282 68.7073 340.932 67.8315 340.932 66.5149C340.932 64.9838 340.277 63.6672 338.96 62.7914C337.646 61.9156 335.892 61.4748 333.479 61.4748C331.072 61.4748 328.448 61.9127 325.6 62.7914C322.746 63.6672 319.466 64.7605 315.96 66.5149L317.494 54.6858C320.995 53.81 324.066 53.1547 327.131 52.7139C330.105 52.2776 333.107 52.0585 336.112 52.0585C342.684 52.0585 347.286 53.1518 349.911 55.3442C352.755 57.5336 354.075 61.0368 354.075 66.077V70.4589L353.196 94.9871V103.313H339.401V103.31L339.401 103.31ZM414.972 53.8078C414.308 61.2551 413.656 68.9224 413.221 77.2457C412.767 85.9264 412.547 94.6178 412.559 103.31H399.854V97.1739C397.876 99.5644 395.411 101.507 392.625 102.872C389.997 103.966 386.712 104.624 382.991 104.624C376.199 104.624 371.382 103.31 368.532 100.683C365.472 98.0555 364.153 93.8911 364.153 87.978C364.153 86.8847 364.373 82.9406 364.591 76.3722C364.808 69.8037 365.029 63.6673 365.029 58.192V53.8071H378.609C378.171 59.2823 377.734 64.54 377.513 69.5773C377.293 74.6146 377.078 78.7761 377.078 82.2792C377.078 86.6583 377.739 89.7265 379.265 91.6984C380.799 93.6704 382.991 94.3287 386.277 94.3287C391.755 94.3287 395.696 91.9188 397.889 87.0989C400.075 82.2791 401.169 73.7387 401.169 61.0343V53.8075H414.973L414.972 53.8078ZM439.718 38.9128C439.06 45.7017 438.405 52.4935 437.967 59.2793C437.532 66.0711 437.309 72.86 437.091 79.6487L436.874 103.307H422.42C423.296 96.7332 423.954 87.972 424.607 76.8011C425.268 65.6303 425.488 52.9285 425.709 38.9099L439.719 38.9128L439.718 38.9128ZM464.034 85.5648V88.4126C464.034 90.3845 464.469 91.6983 465.345 92.5741C466.224 93.4528 467.538 94.114 469.289 94.114C470.162 94.114 471.261 93.8936 472.569 93.6732C473.889 93.4528 475.417 93.0149 476.957 92.5741L474.764 103.751C473.233 103.968 471.482 104.409 469.73 104.409C467.978 104.629 466.224 104.629 464.472 104.629C459.652 104.629 455.932 103.751 453.742 102.002C451.335 100.25 450.239 97.6172 450.239 93.8965C450.239 93.2353 450.454 91.707 450.674 89.0766C450.892 86.4492 451.109 84.0393 451.109 82.0673L451.988 63.8871H445.196L445.631 53.8096H452.858L453.296 45.4866L466.218 43.0766L465.783 53.8066H477.389L476.957 63.8841H464.91L464.034 85.5648L464.034 85.5648ZM481.118 96.3006H487.693L487.255 103.313H480.686L481.118 96.3006V96.3006ZM492.945 103.31C493.385 99.3659 493.823 94.7665 494.044 89.2884C494.258 84.0335 494.476 78.1205 494.702 71.7666H516.162L515.947 77.4593C514.628 77.4593 513.54 77.4593 512.656 77.2418H501.708C501.708 77.6797 501.491 77.8972 501.491 78.5554C501.491 79.2137 501.273 79.8691 501.273 80.7449L501.059 83.8131H511.794C512.667 83.8131 513.325 83.8131 513.987 83.5956L513.766 89.5088H500.847L500.632 92.7915C500.632 94.111 500.412 95.1984 500.412 96.2976V103.089H492.965V103.31H492.944L492.945 103.31ZM518.131 103.31C518.566 99.3659 519.01 94.7665 519.23 89.2884C519.445 84.0335 519.665 78.1205 519.886 71.7666H533.904C535.656 71.7666 536.752 71.7666 537.628 71.9841C538.507 72.2045 539.162 72.422 539.817 72.6424C541.134 73.2978 542.007 74.1735 542.662 75.4873C543.323 76.801 543.758 78.3351 543.758 80.0867C543.758 82.2761 543.097 84.0307 541.784 85.5618C540.47 87.0959 538.498 88.4096 536.091 89.2854C537.103 91.7324 538.199 94.1437 539.377 96.5151C540.47 98.7076 541.569 101.115 542.445 103.087H535.001L527.33 85.1301C527.765 85.1301 528.212 85.1301 528.644 85.3505H530.178C532.585 85.3505 534.339 84.9126 535.435 84.0368C536.526 83.161 537.187 82.0649 537.187 80.3132C537.187 78.9996 536.749 77.9033 535.868 77.4655C534.995 77.0276 533.461 76.5897 530.833 76.5897H526.669C526.454 77.248 526.454 78.1238 526.237 78.7791C526.237 79.4374 526.016 80.3133 526.016 80.9686L525.578 93.2327C525.578 93.4502 525.578 94.7668 525.358 96.9562C525.358 99.1487 525.358 101.124 525.143 102.649H518.131V103.31L518.131 103.31ZM172.822 55.4486C172.333 64.2467 171.959 73.0508 171.699 81.8587C171.472 89.3407 171.352 96.8256 171.34 104.311H157.359C158.09 96.455 158.629 88.463 158.983 80.3308C159.334 72.2022 159.508 63.9078 159.508 55.4457H172.822L172.822 55.4486ZM159.795 51.5336L160.273 39.6059H173.492L173.013 51.5336H159.795V51.5336Z" />
        </g>
    </g>
</g>
</svg>