<svg xmlns="http://www.w3.org/2000/svg" xmlns:xlink="http://www.w3.org/1999/xlink" version="1.1" id="Layer_1" x="0px" y="0px" viewBox="0 0 168 65" style="enable-background:new 0 0 168 65;" xml:space="preserve">
<style type="text/css">
    .st0{fill:#FFFFFF;}
    .st1{fill:#FEDD10;}
</style>
<path d="M44.5492 40.1279C43.5681 45.8604 38.0626 50.547 32.3301 50.547H16L19.592 42.9009H33.4895C35.1112 42.9009 36.6193 41.5711 36.9031 40.0063L40.5518 19.1599H31.0003L34.649 11.457H49.6493L44.5492 40.1279Z" fill="#FFFFFF"/>
<path d="M75.5472 50.5465H55.9008C51.6764 50.5465 48.8385 47.133 49.5926 42.9004L52.8359 24.4865C53.59 20.2054 57.5874 16.7837 61.8118 16.7837H74.5904C78.8716 16.7837 81.7095 20.1973 80.9554 24.4865L78.6364 37.5165H59.882L61.2847 29.8137H72.3282L72.9687 25.9947C73.139 25.1271 72.6201 24.4865 71.7525 24.4865H62.0388C61.1712 24.4865 60.3604 25.1271 60.182 25.9947L57.5144 41.3355C57.3441 42.2031 57.9198 42.9004 58.7874 42.9004H71.7282L75.5472 50.5465Z" fill="#FFFFFF"/>
<path d="M105.556 42.909L99.1503 50.5551H90.069C85.8446 50.5551 83.0067 47.1415 83.7608 42.909L89.7285 9.1543H97.3746L95.9881 16.8004H105.377L109.261 24.5033H94.6502L91.6988 41.3522C91.5285 42.2198 92.1042 42.9171 92.9718 42.9171H105.556V42.909Z" fill="#FFFFFF"/>
<path d="M130.359 51.5685L124.181 39.2196L108.321 58.0308H98.6801L120.686 32.06L111.078 12.4866H120.28L126.475 25.1112L142.797 6H152L129.856 31.8654L139.562 51.5685H130.359Z" fill="#FEDD10"/>
</svg>