<?xml version="1.0" encoding="utf-8"?>
<!-- Generator: Adobe Illustrator 21.0.2, SVG Export Plug-In . SVG Version: 6.00 Build 0)  -->
<!DOCTYPE svg PUBLIC "-//W3C//DTD SVG 1.1//EN" "http://www.w3.org/Graphics/SVG/1.1/DTD/svg11.dtd">
<svg version="1.1" id="Version_x5F_01" xmlns="http://www.w3.org/2000/svg" xmlns:xlink="http://www.w3.org/1999/xlink" x="0px"
     y="0px" viewBox="0 0 353.2 68" enable-background="new 0 0 353.2 68" xml:space="preserve">
<style type="text/css">
    .st0{fill:#C9CACB;}
</style>
<path class="st0" d="M38.9,17.2c0,2-1.6,3.6-3.6,3.6s-3.6-1.6-3.6-3.6c0-2,1.6-3.6,3.6-3.6S38.9,15.3,38.9,17.2L38.9,17.2z
     M29.9,55.8c0,2-1.6,3.6-3.6,3.6c-2,0-3.6-1.6-3.6-3.6c0-2,1.6-3.6,3.6-3.6C28.3,52.2,29.9,53.8,29.9,55.8L29.9,55.8z M41.6,38
    c-0.2,0.2-0.7,0.2-0.9,0L39,36.4c-0.3-0.2-0.3-0.7,0-0.9l3.6-3.6l-3.8-3.7l-9.2,9.1c-0.2,0.2-0.7,0.2-0.9,0l-5.4-5.4
    c-0.2-0.2-0.2-0.7,0-0.9l4.8-4.8H12.3c-0.5,0-0.7-0.6-0.4-0.9l2-2c0.3-0.2,0.9-0.7,1.5-0.7h22.3c0.2,0,0.7,0.1,1,0.4l8.5,8.5
    c0.2,0.2,0.2,0.7,0,0.9L41.6,38z M21.3,33c0.2-0.2,0.7-0.2,0.9,0l1.6,1.6c0.2,0.2,0.2,0.7,0,0.9l-9.5,9.5c-0.2,0.2-0.7,0.2-0.9,0
    l-1.6-1.6c-0.2-0.2-0.2-0.7,0-0.9L21.3,33z M68,34C68,15.2,52.8,0,34,0C15.2,0,0,15.2,0,34c0,7.8,2.6,15,7.1,20.7l18-18
    c0.3-0.2,0.7-0.2,0.9,0l1.6,1.6c0.2,0.3,0.2,0.7,0,0.9L9.4,57.5C15.6,64,24.3,68,34,68C52.8,68,68,52.8,68,34z"/>
<path class="st0" d="M352.2,42.4c0-0.2-0.2-0.4-0.3-0.5c-0.2-0.1-0.4-0.1-0.6,0c-0.3,0.1-0.6,0.2-1,0.2c-1.1,0-1.5-0.7-1.5-2
    V17.6c0-0.4-0.3-0.7-0.7-0.7h-0.7c-0.4,0-0.9,0.2-1.2,0.5l-4,4c-0.4,0.4-0.7,1-0.7,1.7v18.6c0,4.7,2.6,6.4,6.3,6.4
    c1.6,0,3.6-0.3,5-1.1c0.3-0.2,0.4-0.5,0.3-0.8C353,45.6,352.8,44.5,352.2,42.4z M338.3,42.4c0-0.2-0.2-0.4-0.4-0.5
    c-0.2-0.1-0.4-0.1-0.6,0c-0.3,0.1-0.6,0.2-1,0.2c-1.1,0-1.6-0.7-1.6-2V17.6c0-0.4-0.3-0.7-0.7-0.7h-0.6c-0.4,0-0.8,0.2-1.2,0.5
    l-4.1,4c-0.4,0.4-0.7,1-0.7,1.7v18.6c0,4.7,2.6,6.4,6.3,6.4c1.6,0,3.6-0.3,5-1.1c0.3-0.2,0.4-0.5,0.3-0.8
    C339.1,45.6,338.8,44.5,338.3,42.4z M315.1,40.1c-0.9,0.9-2.6,1.7-4.3,1.7c-3.1,0-5.2-2.2-5.2-5.5c0-3.2,2-5.4,5.2-5.4
    c1.6,0,3.2,0.7,4.3,1.8V40.1z M321.4,47.6c0.5,0,0.8-0.4,0.8-0.8V26c0-0.4-0.3-0.7-0.7-0.7h-5.8c-0.4,0-0.7,0.3-0.7,0.7v1.4
    c-1.5-1.5-3.7-2.5-6.4-2.5c-6.2,0-10.4,4.8-10.4,11.5c0,6.8,4.1,11.7,10.4,11.7c2.9,0,5-1.2,6.4-2.7v1.5c0,0.4,0.3,0.7,0.7,0.7
    H321.4z M287.6,36.3c0,3.3-2,5.5-5.3,5.5c-1.8,0-3.5-0.9-4.4-1.7v-7.5c1.1-1,2.7-1.8,4.4-1.8C285.5,30.8,287.6,33,287.6,36.3
    L287.6,36.3z M294.9,36.3c0-6.8-4.3-11.6-10.6-11.6c-2.7,0-5,1-6.5,2.5v-9.6c0-0.4-0.3-0.7-0.7-0.7h-0.6c-0.4,0-0.9,0.2-1.2,0.5
    l-4.2,4.2c-0.4,0.4-0.7,1-0.7,1.7v23.7c0,0.4,0.3,0.7,0.7,0.7h5.9c0.4,0,0.7-0.3,0.7-0.7v-1.6c1.4,1.6,3.5,2.7,6.5,2.7
    C290.7,48.1,294.9,43.1,294.9,36.3L294.9,36.3z M258.4,30.8h7.1c0.4,0,0.7-0.3,0.7-0.7V26c0-0.4-0.3-0.7-0.7-0.7h-7.1v-5
    c0-0.4-0.3-0.7-0.7-0.7h-0.5c-0.4,0-0.8,0.2-1.1,0.4l-8.3,7.7c-0.3,0.3-0.5,0.6-0.5,1v1.4c0,0.4,0.3,0.7,0.7,0.7h3.1v9
    c0,5.4,3.1,8.2,7.9,8.2c3.3,0,5.7-0.8,7.5-2c0.3-0.2,0.4-0.6,0.3-0.9c-0.2-0.6-0.7-1.7-1.6-3.9c-0.1-0.2-0.2-0.3-0.4-0.4
    c-0.2-0.1-0.4,0-0.6,0.1c-0.9,0.5-2,0.9-3.1,0.9c-1.7,0-2.7-1-2.7-3.5V30.8z M238.7,36.4c0,3-2.1,5.3-5.3,5.3
    c-3.1,0-5.2-2.3-5.2-5.3c0-3.1,2.1-5.4,5.2-5.4C236.5,31.1,238.7,33.4,238.7,36.4L238.7,36.4z M245.5,36.4c0-6.8-5.1-11.8-12.2-11.8
    c-7,0-12.1,5-12.1,11.8c0,6.7,5.1,11.6,12.1,11.6C240.4,48.1,245.5,43.2,245.5,36.4L245.5,36.4z M211.5,36.4c0,3-2.1,5.3-5.3,5.3
    c-3.1,0-5.2-2.3-5.2-5.3c0-3.1,2.1-5.4,5.2-5.4C209.4,31.1,211.5,33.4,211.5,36.4L211.5,36.4z M120.8,33.2c0-8.6-6.5-14.9-15.1-14.9
    c-8.6,0-15,6.4-15,14.9c0,8.6,6.3,14.9,15,14.9C114.4,48.1,120.8,41.7,120.8,33.2L120.8,33.2z M218.3,36.4c0-6.8-5.1-11.8-12.2-11.8
    c-6.9,0-12.1,5-12.1,11.8c0,6.7,5.1,11.6,12.1,11.6C213.2,48.1,218.3,43.2,218.3,36.4L218.3,36.4z M173.7,34c0-5.1-3.3-9.3-10.1-9.3
    c-7.2,0-11.9,5-11.9,11.8c0,6.6,3.8,11.6,12.3,11.6c3.2,0,6.5-0.8,9-2.6c0.3-0.2,0.4-0.6,0.2-0.9c-0.3-0.5-0.9-1.5-2-3.4
    c-0.1-0.2-0.2-0.3-0.4-0.3c-0.2,0-0.4,0-0.5,0.1c-1.7,1-4,1.7-5.9,1.7c-3.3,0-5.1-1.6-5.6-4.2h13.8c0.3,0,0.6-0.2,0.7-0.6
    C173.6,36.6,173.7,35,173.7,34L173.7,34z M125.6,25.3c-0.4,0-0.7,0.3-0.7,0.7v20.9c0,0.4,0.3,0.7,0.7,0.7h5.8c0.4,0,0.7-0.3,0.7-0.7
    V34.1c0.7-1.3,2.1-2.8,4.5-2.8c2.7,0,4,1.6,4,4.4v11.1c0,0.4,0.3,0.7,0.7,0.7h5.8c0.4,0,0.7-0.3,0.7-0.7V34.7c0-5.5-2.5-9.9-8.6-9.9
    c-3,0-5.4,1.1-7.1,3V26c0-0.4-0.3-0.7-0.7-0.7H125.6z M190.2,31.4c0.5,0,1-0.2,1.3-0.6l3.1-3.8c0.2-0.2,0.2-0.5,0.1-0.7
    c-0.1-0.2-0.4-0.4-0.6-0.4h-6.2v-2c0-1.4,0.6-2.3,2.1-2.3c0.5,0,1.9,0.2,3,0.5c0.4,0.1,0.7-0.1,0.9-0.4c0.2-0.6,0.7-1.8,1.4-4
    c0.1-0.4-0.1-0.8-0.4-0.9c-1.8-0.7-4.9-1.1-6.1-1.1c-5.6,0-8.1,3.9-8.1,8.3v1.9h-3.1c-0.4,0-0.7,0.3-0.7,0.7v4.1
    c0,0.4,0.3,0.7,0.7,0.7h3.1v15.4c0,0.4,0.3,0.7,0.7,0.7h5.9c0.4,0,0.7-0.3,0.7-0.7V31.4H190.2z M113.7,33.2c0,4.6-3.2,8.1-7.9,8.1
    c-4.6,0-8-3.5-8-8.1c0-4.7,3.3-8.2,8-8.2C110.5,25,113.7,28.5,113.7,33.2L113.7,33.2z M167.4,33.5c0,0.2,0,0.7,0,0.9h-8.5
    c0.3-2.5,1.8-4.5,4.6-4.5C166.2,29.8,167.4,31.3,167.4,33.5z"/>
</svg>
