<?xml version="1.0" encoding="utf-8"?>
<!-- Generator: Adobe Illustrator 24.3.0, SVG Export Plug-In . SVG Version: 6.00 Build 0)  -->
<svg version="1.1" id="Layer_1" xmlns="http://www.w3.org/2000/svg" xmlns:xlink="http://www.w3.org/1999/xlink" x="0px" y="0px"
     viewBox="0 0 173 59" style="enable-background:new 0 0 173 59" xml:space="preserve">
<style type="text/css">
    .st0{fill:#C9CACB;}
</style>
<g id="DW4elS_1_">
    <g>
        <g>
        <path class="st0" d="M82.9294 1L72.1284 1.03594L67.258 24.2375L76.7651 21.9012L77.5199 16.9409L78.2927 21.5237L86.7933 19.439L82.9294 1Z" />
<path class="st0" d="M51.0834 1.03594H31.9615L31.8716 32.81L57.8049 26.484V6.60719L51.0834 1.03594ZM42.0077 8.62003H47.0578C47.3273 8.62602 47.8701 8.78537 47.8845 9.37484C47.8988 9.96431 47.8905 18.5464 47.8845 22.7638C47.9024 23.0094 47.7623 23.5078 47.0578 23.5366C46.3533 23.5653 43.3975 23.5486 42.0077 23.5366V8.62003Z" />
<path class="st0" d="M42.0077 44.4018V34.5353L24 39.4236H34.2439L42.0077 44.4018Z" />
<path class="st0" d="M53.6534 31.3902L44.4698 33.8703L48.172 44.4018H58.6855L53.6534 31.3902Z" />
<path class="st0" d="M76.2619 25.2978L66.4852 27.9397L63.0347 44.3659H73.1887L74.1053 38.9564H80.9345L81.8511 44.3659H92.059L87.3864 22.2965L78.7599 24.6149L79.8922 32.0911H75.2555L76.2619 25.2978Z" />
<path class="st0" d="M107.659 1.03594H97.6123V16.7972L107.659 14.4249V1.03594Z" />
<path class="st0" d="M107.659 16.7972L97.6123 19.5109V44.3659H107.659V16.7972Z" />
<path class="st0" d="M134.347 1.03594H114.668V12.6996L124.624 10.2734V8.60205H129.35C129.868 8.60205 130.153 8.8297 130.231 8.94352L142.11 6.01412L149.083 3.83954L137.671 3.96534L134.347 1.03594Z" />
<path class="st0" d="M124.624 12.2323L114.668 14.9281V44.3659H132.496L140.349 37.6804V7.97304L130.339 10.7047V35.6136C130.339 36.5625 130.033 36.7638 129.512 36.7638H124.624V12.2323Z" />
<path class="st0" d="M35.5738 47.2952L35.9692 49.1104H33.2555C33.2075 49.1164 33.1117 49.1499 33.1117 49.2362V51.1771C33.1117 51.2251 33.144 51.3209 33.2734 51.3209H35.0167C35.3402 51.3149 35.9872 51.4683 35.9872 52.1297V55.8857C35.9692 56.2572 35.6637 57 34.5854 57H31.4942L31.0809 55.2028H33.561C33.6389 55.1908 33.7946 55.1309 33.7946 54.9872V53.172C33.7946 53.0462 33.7407 52.9384 33.6149 52.9384H31.9076C31.3504 52.9384 30.9191 52.6149 30.9191 52.0218V48.3556C30.9191 47.5828 31.7279 47.3132 32.0154 47.3132C32.2454 47.3132 34.4835 47.3012 35.5738 47.2952Z" />
<path class="st0" d="M38.665 47.3132H40.9474V51.4288H42.2054V47.3132H44.5058V57H42.2054V53.1361H40.9474V57H38.647L38.665 47.3132Z" />
<path class="st0" d="M46.8062 57L48.8549 47.3132H51.2811L53.3299 57H51.0655L50.8318 55.7779H49.3042L49.0886 57H46.8062ZM50.077 50.8537L49.5379 54.2503H50.6162L50.077 50.8537Z" />
<path class="st0" d="M55.6483 47.3132V57H59.9974C60.9499 57 61.3992 56.4788 61.3992 55.8857V48.1938C61.3992 47.5109 60.6085 47.3132 60.3928 47.3132H55.6483ZM57.8947 49.0026H59.0809C59.1743 49.0026 59.1733 49.0295 59.1714 49.0834C59.1711 49.0918 59.1707 49.1008 59.1707 49.1104V55.2028C59.1707 55.2747 59.1528 55.3107 59.0809 55.3107H57.8947V49.0026Z" />
<path class="st0" d="M65.1014 47.3132H68.7676C69.5764 47.3132 69.9178 47.8524 69.9178 48.3196V55.8857C69.9178 56.5866 69.2169 57 68.57 57H65.353C64.4005 57 64.059 56.2092 64.059 55.8318V48.3196C64.059 47.5109 64.9217 47.3132 65.1014 47.3132ZM67.5276 49.0026H66.4673C66.3774 49.0026 66.3235 49.0385 66.3235 49.1104V55.1489C66.3235 55.2208 66.3594 55.2927 66.4493 55.2927H67.4917C67.6175 55.2927 67.6354 55.2567 67.6354 55.1489L67.6358 49.2721C67.6358 49.2687 67.6356 49.1388 67.6358 49.1343L67.6358 49.134C67.6358 49.0924 67.6411 49.0026 67.5276 49.0026Z" />
<path class="st0" d="M72.2721 47.3132H74.5725L75.2914 52.8665L76.2259 47.3132H77.8614L78.7599 52.8665L79.4968 47.3132H81.8151L80.0359 57H77.9692L77.0167 51.9679L76.1001 57H74.0513L72.2721 47.3132Z" />
<path class="st0" d="M87.7818 47.3132H90.1181V55.1848H92.4005L91.9872 57H87.7818V47.3132Z" />
<path class="st0" d="M94.8267 47.3132H99.2118L99.6072 49.0924H97.1451V51.4108H99.0141V53.0642H97.1451V55.1848H99.6072L99.2118 57H94.8267V47.3132Z" />
<path class="st0" d="M106.688 47.3132L107.012 49.0924H104.513C104.406 49.0924 104.352 49.1643 104.352 49.2362V55.095C104.352 55.1848 104.406 55.2388 104.513 55.2388H105.61V51.3928H107.802V57H103.525C102.698 57 102.087 56.5148 102.087 55.7599V48.3017C102.087 47.6008 102.716 47.3132 103.058 47.3132H106.688Z" />
<path class="st0" d="M110.426 47.3132H114.811L115.207 49.0924H112.745V51.4108H114.614V53.0642H112.745V55.1848H115.207L114.811 57H110.426V47.3132Z" />
<path class="st0" d="M138.983 47.2952L139.379 49.1104H136.665C136.617 49.1164 136.521 49.1499 136.521 49.2362V51.1771C136.521 51.2251 136.554 51.3209 136.683 51.3209H138.426C138.75 51.3149 139.397 51.4683 139.397 52.1297V55.8857C139.379 56.2572 139.073 57 137.995 57H134.904L134.49 55.2028H136.97C137.048 55.1908 137.204 55.1309 137.204 54.9872V53.172C137.204 53.0462 137.15 52.9384 137.024 52.9384H135.317C134.76 52.9384 134.329 52.6149 134.329 52.0218V48.3556C134.329 47.5828 135.137 47.3132 135.425 47.3132C135.655 47.3132 137.893 47.3012 138.983 47.2952Z" />
<path class="st0" d="M117.705 47.3132H119.861L120.976 51.1232V47.3132H123.312V57H120.976L119.789 53.0642V57H117.705V47.3132Z" />
<path class="st0" d="M125.99 47.3132V57H130.339C131.291 57 131.741 56.4788 131.741 55.8857V48.1938C131.741 47.5109 130.95 47.3132 130.734 47.3132H125.99ZM128.236 49.0026H129.422C129.516 49.0026 129.515 49.0295 129.513 49.0834C129.513 49.0878 129.512 49.0923 129.512 49.097L129.512 49.1026L129.512 49.1058L129.512 49.1104V55.2028C129.512 55.2747 129.494 55.3107 129.422 55.3107H128.236V49.0026Z" />
</g>
    </g>
</g>
</svg>