<?xml version="1.0" encoding="utf-8"?>
<!-- Generator: Adobe Illustrator 24.3.0, SVG Export Plug-In . SVG Version: 6.00 Build 0)  -->
<svg version="1.1" id="Layer_1" xmlns="http://www.w3.org/2000/svg" xmlns:xlink="http://www.w3.org/1999/xlink" x="0px" y="0px"
	 viewBox="0 0 172.8 42.5" style="enable-background:new 0 0 172.8 42.5;" xml:space="preserve">
<style type="text/css">
	.st0{fill:#C9CACB;}
</style>
<g id="DW4elS_1_">
	<g>
		<g>
			<path class="st0" d="M32.4,34c0.6,1.7,0.8,3.4-0.4,5c-0.4,0.6-0.2,1.2-0.3,1.8c0,0.2-0.2,0.6-0.4,0.6c-0.4,0.1-1,0.2-1.3-0.3
				c-0.1-0.2-0.3-0.6-0.2-0.7c0.5-0.7,0.3-1.4,0.1-2.1c-0.1-0.4-0.2-0.8-0.2-1.2c0.1-0.8-0.1-1.3-0.9-1.4c-0.7-0.1-1-0.7-1.1-1.3
				c-0.2-0.9,0.3-1.8,1.3-2.1c0.6-0.2,1.2-0.3,1.7-0.5c0.5-0.2,0.5-0.8,0-1.1c-0.5-0.3-1.1-0.4-1.8-0.3c-2,0.4-3.9,0.9-5.9,1.2
				c-1.4,0.3-2.7,0.6-4.2,0.1c-2.9-0.9-4.3-4.3-2.6-7.1c0.1-0.2,0.2-0.4,0.4-0.6c0.8-0.7,1.1-1.6,1.3-2.7c0.2-1.4,0.9-2.6,2-3.6
				c0.3-0.3,0.5-0.5,0.4-1.1c-0.2-1,0-2,0.3-3c0.1-0.3,0.3-0.7,0.3-1.1c0-0.1,0-0.3-0.1-0.4c-0.1-0.1-0.3-0.1-0.5,0
				c-1.2,0.5-1.7,1.5-1.2,2.7c0.1,0.3,0.3,0.6-0.1,0.9c-0.3,0.3-0.8,0.3-1.1-0.1c-0.6-0.7-0.9-1.5-0.7-2.5c0.3-1.2,0.9-2.1,2-2.7
				c0.1,0,0.2-0.1,0.2-0.1c0.2-0.2,0.5-0.4,0.7-0.6c-0.3-0.2-0.6-0.5-0.9-0.6c-0.5-0.2-1.1,0.1-1.4,0.5c-0.4,0.5-0.8,1-1.1,1.6
				c-0.6,1.7-1.1,3.4-1.7,5c-0.5,1.4-1.1,2.7-2.2,3.7c-1.3,1.1-3.1,1.2-4.5,0.2c-0.7-0.5-1-1.3-1.3-2.1c-0.1-0.5-0.3-0.6-0.8-0.8
				c-1.4-0.4-2.7-1.1-3.4-2.5c-0.3-0.6-0.6-1-1.3-1.2c-0.7-0.2-0.7-0.7-0.3-1.2c0.1-0.1,0.2-0.2,0.3-0.3c0.4-0.4,0.7-0.5,1,0
				c0.4,0.6,1,0.9,1.7,1.1c0.4,0.1,0.8,0.3,1.2,0.5c0.3,0.2,0.6,0.4,1,0.6c0.3-0.3,0.6-0.6,1-0.8c0.7-0.4,1.3-0.4,2,0
				c0.6,0.4,0.9,1,0.8,1.8c-0.1,0.5-0.2,1-0.4,1.5c-0.1,0.4-0.1,0.8,0.2,1c0.4,0.3,0.8,0,1.1-0.3c0.2-0.3,0.4-0.6,0.6-0.9
				c0.8-1.5,1.1-3.2,1.7-4.9c0.4-1.3,0.9-2.5,1.6-3.7c1.7-2.7,5.9-2.9,7.9,0c0.2,0.2,0.3,0.5,0.4,0.7c0.3,1.3,1.1,2.2,2.1,3
				c1,0.9,1.6,2.1,1.9,3.4c0.1,0.3,0.3,0.7,0.5,0.7c1.3,0.4,2.2,1.3,3.2,2.3c0.2,0.2,0.5,0.4,0.7,0.3c0.4-0.2,0.4-0.6,0.3-1
				c-0.3-0.7-0.6-1.4-1.4-1.6c-0.1,0-0.3-0.1-0.4-0.1c-0.4,0-0.7-0.1-0.7-0.5c0-0.4,0.3-0.7,0.7-0.8c0.5-0.2,1-0.2,1.5,0
				c1.7,0.6,2.5,2.2,2.4,4c0,0.1-0.1,0.3-0.1,0.4c0,0.4,0.3,0.6,0.6,0.4c0.9-0.4,1.2-1.3,0.8-2.2c-0.4-0.9-0.9-1.6-1.5-2.3
				c-1.3-1.4-2.5-2.8-3.7-4.2c-0.7-0.8-1.1-1.9-1.3-2.9c-0.4-2.7,2.4-4.5,4.4-3.8c0.3,0.1,0.5,0.2,0.8,0.3c0.2-0.3,0.4-0.5,0.7-0.7
				c1.1-0.9,2.1-1.7,3.6-1.5c0.7,0.1,1.3-0.1,1.8-0.6c0.5-0.4,0.9-0.3,1.1,0.4c0.3,0.8,0.2,1.1-0.7,1.3c-0.3,0.1-0.7,0.3-1,0.5
				c-0.3,0.2-0.5,0.5-0.8,0.8c-1,0.9-1.4,1.5-1.6,2.7c-0.2,0.9-1.2,1.6-2.1,1.3c-0.5-0.2-0.9-0.5-1.3-0.8c-0.3-0.3-0.6-0.6-0.9-0.8
				c-0.2-0.1-0.5-0.2-0.6-0.1C32.1,6.7,31.9,7,32,7.2C32,7.6,32.2,8,32.4,8.3c0.7,1,1.5,1.9,2.3,2.8c1,1.1,2,2.2,3,3.3
				c0.3,0.4,0.6,0.9,0.8,1.3c1.2,2.7,0,5.4-2.8,6.4c-1.1,0.4-2.2,0.3-3.3,0c-0.4-0.1-0.8-0.1-1.2,0.1c-1.6,0.8-3.3,0.8-5,0.4
				c-0.3-0.1-0.7-0.1-0.9,0.1c-1.1,0.9-2.4,1.2-3.7,1.5c-0.2,0-0.5,0.3-0.5,0.4c0.1,0.2,0.2,0.5,0.4,0.6c0.7,0.4,1.9,0.2,2.5-0.4
				c0.1-0.1,0.3-0.3,0.4-0.4c0.2-0.3,0.5-0.2,0.8,0c0.3,0.2,0.4,0.4,0.3,0.8c-0.3,1.1-1.3,2-2.5,2.1c-1,0.1-2-0.1-2.8-0.6
				c-0.3-0.2-0.5-0.3-0.8-0.5c-0.4,1.1-0.1,1.9,0.8,2.2c0.6,0.2,1.2,0.4,1.9,0.2c1.6-0.4,3.3-0.7,4.9-1c1.2-0.2,2.5-0.3,3.8-0.2
				c1.4,0,2.5,0.8,3,2c0.5,1,0.5,2.3-0.2,3.3C33.2,33.2,32.7,33.6,32.4,34z M30.6,34c0.7-0.3,1.1-0.5,1.4-0.7c1.6-1,1.8-3.2,0.4-4.4
				c-0.6-0.5-1.3-0.9-2.2-0.9c-1,0-2,0.1-2.9,0.2c-1.2,0.2-2.5,0.5-3.7,0.8c-1.2,0.2-2.5,0.5-3.7,0.1c-0.8-0.3-1.2-0.8-1.5-1.5
				c-0.4-1,0-1.7,0.5-2.4c0.9,0.5,1.6,1.2,2.5,1.5c0.9,0.4,1.8,0.1,2.7-0.8c-0.4,0.2-0.6,0.3-0.8,0.3C22,26.5,20.8,26,20.2,25
				c-0.3-0.5-0.2-0.8,0.3-1c0.2-0.1,0.3-0.1,0.5-0.2c1.7-0.3,3.3-0.8,4.3-2.2c2,0.9,3.4,1.1,5.1,0.3c0.9-0.4,1.7-0.5,2.7-0.2
				c1.7,0.4,3.7-0.3,4.5-1.6c1-1.6,1-3.3-0.2-4.8c-0.8-1-1.6-2-2.5-3c-0.8-1-1.7-1.8-2.5-2.8c-0.4-0.5-0.8-1.2-1-1.8
				C31.2,7,31.3,6.4,31.9,6c0.5-0.3,1-0.3,1.7,0.2c0.2,0.2,0.4,0.4,0.6,0.6c0.2,0.2,0.4,0.4,0.6,0.6c0.6,0.4,0.9,0.4,1.4,0.1
				c0.5-0.3,0.7-0.8,0.4-1.5c-0.1-0.2-0.2-0.4-0.3-0.6c-0.3-0.6-0.1-0.9,0.5-0.9c1.2,0,1.7-0.9,2.4-1.7c-0.3-0.1-0.5-0.2-0.7-0.2
				c-1.4-0.3-2.4,0.7-3.4,1.3c-0.3,0.2-0.5,0.7-0.3,1.1c0.1,0.2,0.1,0.5,0.1,0.7c-0.3-0.2-0.5-0.4-0.7-0.6c-0.7-0.8-1.6-0.8-2.6-0.7
				c-0.8,0.1-1.9,1.2-2,2c-0.1,1-0.1,2,0.5,2.8c0.5,0.8,1.1,1.5,1.7,2.3c0.9,1.1,2,2.1,2.9,3.2c0.5,0.6,1,1.4,1.3,2.2
				c0.6,1.7-0.5,3.3-2.3,3.3c-0.5,0-0.7-0.2-0.6-0.7c0.1-0.2,0.2-0.4,0.2-0.7c0.2-1.4-0.1-2.6-1.3-3.5c-0.3-0.3-0.7-0.4-1.1-0.1
				c1.7,0.5,2.3,2.8,1.4,4c-0.3,0.3-0.5,0.4-0.8,0.2c-0.5-0.4-0.9-0.8-1.3-1.3c-0.8-0.8-1.5-1.5-2.6-1.8c-0.5-0.1-0.6-0.4-0.7-0.9
				c-0.2-1.7-1.1-3-2.5-4c-0.6-0.4-0.9-0.9-1.1-1.5C23,9.3,22.8,8.6,22.4,8c-1.5-1.9-4.4-2.5-6.4,0c-0.7,0.9-1.1,2-1.5,3.1
				c-0.6,1.8-1.1,3.6-1.7,5.3c-0.3,0.8-0.8,1.5-1.6,1.9c-0.8,0.5-1.8,0-1.8-0.9c0-0.5,0.1-1,0.2-1.5c0-0.4,0.1-0.7,0.2-1.1
				c0-0.6-0.4-0.8-0.8-1c-0.4-0.2-0.7,0-1,0.3c-0.2,0.2-0.4,0.4-0.6,0.6c-0.6,0.8-0.7,0.8-1.3,0c-0.5-0.7-1.3-1-2.2-1.1
				c-0.3,0-0.5,0.2-0.4,0.4c0.3,0.6,0.6,1.2,1.1,1.6c0.6,0.5,1.4,0.7,2.1,1c0.1,0.1,0.4-0.1,0.5-0.2c0.2-0.1,0.5-0.3,0.8-0.5
				c0,0.6-0.1,1-0.1,1.4c0,1,0.3,1.8,1.2,2.3c1,0.6,2,0.6,3,0c1.2-0.7,1.7-1.8,2.2-3c0.6-1.7,1.1-3.4,1.7-5.2
				c0.3-0.9,0.7-1.6,1.3-2.3c1.1-1,2.4-1,3.5,0c0.8,0.8,0.8,1.1-0.4,1.4c-1.5,0.4-2.3,1.3-2.5,2.8c0,0.2,0,0.4,0,0.6
				c0.3-0.3,0.5-0.6,0.6-1c0.2-0.7,0.7-1.2,1.4-1.5c0.5-0.2,1-0.4,1.5-0.1c0.5,0.4,0.3,1,0.1,1.4c-0.5,1.3-0.6,2.6-0.4,4
				c0.1,0.5-0.1,0.7-0.5,1c-1.3,1-2,2.3-2.1,3.9c0,0.8-0.2,1.5-0.9,1.9c-0.3,0.2-0.6,0.6-0.8,1c-0.8,1.3-0.9,2.6-0.3,4
				c0.7,1.4,1.8,2.3,3.4,2.2c1.1,0,2.2-0.1,3.3-0.3c1.4-0.3,2.8-0.7,4.2-0.9c0.9-0.2,1.9-0.2,2.8-0.1c0.7,0,1.3,0.7,1.4,1.2
				c0.1,0.5-0.4,1.1-1.1,1.4c-0.3,0.1-0.7,0.2-1.1,0.3c-0.3,0.1-0.5,0.2-0.8,0.3c-0.7,0.5-0.8,1.4,0,1.8c0.3,0.2,0.8,0.3,1.2,0.4
				c0.8,0.2,0.8,0.1,0.6,1c-0.1,0.7-0.1,1.5-0.1,2.2c0,0.2,0.3,0.3,0.4,0.5c0.2-0.1,0.3-0.3,0.5-0.4c0.5-0.7,1-1.4,0.5-2.3
				C32.4,35.1,31.9,34.4,30.6,34z M24.5,25.6L24.5,25.6L24.5,25.6L24.5,25.6z"/>
			<path class="st0" d="M61.8,21.8c1.6,2.7,3,5.3,4.5,7.9c-1.9,0.4-2.2,0.3-3-1.1c-1.1-1.9-2.2-3.9-3.3-5.8
				c-0.5-0.8-1.1-1.4-2.1-1.2c-0.3,0-0.7,0-1,0c-1.4,0-1.4,0-1.4,1.4c0,1.8,0,3.6,0,5.3c0,0.3,0,0.6,0,0.8c-0.1,0.7-0.2,0.8-0.9,0.8
				c-1.1,0-1.3-0.1-1.3-1.3c0-5.4,0-10.8,0-16.3c0-1,0-1,1-1c2.5,0,5.1,0,7.6,0c2.9,0,4.4,2.3,4.5,4.4c0,0.6,0,1.3-0.1,2
				c-0.4,2.1-1.7,3.4-3.9,3.8C62.3,21.6,62.1,21.7,61.8,21.8z M59.1,19.6c0.9,0,1.9,0,2.8,0c1.4,0,2.3-0.9,2.4-2.4
				c0-0.4,0-0.8,0-1.3c0-1.6-0.8-2.5-2.4-2.5c-1.9-0.1-3.8,0-5.7,0c-0.5,0-0.7,0.2-0.7,0.7c0,1.6,0,3.3,0,4.9c0,0.5,0.2,0.7,0.7,0.7
				C57.1,19.6,58.1,19.6,59.1,19.6z"/>
			<path class="st0" d="M166,21.8c1.6,2.7,3.1,5.3,4.5,7.9c-1.6,0.6-2.1,0.4-2.8-0.8c-1.1-1.9-2.2-3.8-3.3-5.7
				c-0.6-1.1-1.2-1.8-2.6-1.6c-0.4,0.1-0.8,0-1.3,0c-0.8,0.1-1,0.2-1,1c0,1.9,0,3.7,0,5.6c0,0.2,0,0.4,0,0.6c0,1.2-0.1,1.2-1.3,1.1
				c-0.4,0-0.6-0.2-0.6-0.6c0-0.3,0-0.6,0-0.8c0-5.2,0-10.4,0-15.6c0-0.2,0-0.5,0-0.7c0.1-0.6,0.2-0.8,0.9-0.8c2.7,0,5.4-0.1,8.1,0
				c2.1,0.1,3.5,1.6,3.9,3.7c0.3,1.3,0.2,2.6-0.3,3.8c-0.6,1.5-1.8,2.2-3.3,2.6C166.7,21.6,166.4,21.7,166,21.8z M163.4,19.6
				c0.7,0,1.4-0.1,2.1,0c2,0.2,3.4-1.2,3.1-3.1c0-0.1,0-0.2,0-0.3c0-1.8-1-2.8-2.8-2.8c-1.7,0-3.4,0-5,0c-1,0-1.1,0.2-1.2,1.1
				c0,1.4,0,2.8,0,4.2c0,0.7,0.1,0.8,0.8,0.9C161.4,19.6,162.4,19.6,163.4,19.6z"/>
			<path class="st0" d="M118.5,27.9c-0.2,0.5-0.4,0.8-0.5,1.1c-0.3,0.6-0.7,0.9-1.4,0.9c-3.3,0-6.7,0-10,0c-0.2,0-0.4-0.1-0.8-0.1
				c1.4-2.9,3.1-5.5,4.6-8.2c1.5-2.7,3.1-5.3,4.7-8.1c-0.7,0-1.1-0.1-1.6-0.1c-2.3,0-4.6,0-6.9,0c-0.9,0-1,0-1-0.9c0-1,0-1.1,1-1.1
				c3.6,0,7.2,0,10.8,0c0.2,0,0.4,0,0.5,0c0.2,0.1,0.3,0.3,0.3,0.5c0,0.2-0.2,0.4-0.3,0.6c-2.3,4-4.6,7.9-6.9,11.9
				c-0.5,0.8-1,1.7-1.4,2.6c-0.4,0.8-0.3,1,0.6,1c1.7,0,3.5,0,5.2,0C116.4,27.9,117.4,27.9,118.5,27.9z"/>
			<path class="st0" d="M86,16.9c-0.5,1.2-1,2.2-1.4,3.3C83.4,23.1,82.2,26,81,29c-0.4,0.9-1.2,1.3-2.2,0.9
				c-0.4-0.1-0.3-0.4-0.2-0.7c0.6-1.5,1.2-2.9,1.8-4.4c1.6-4,3.2-8,4.9-12.1c0.1-0.4,0.4-0.7,0.7-1.2c0.9,2.2,1.8,4.2,2.6,6.2
				c1.4,3.5,2.8,7.1,4.3,10.6c0.6,1.4,0.4,1.7-1.1,1.5c-0.2,0-0.5-0.2-0.6-0.4c-0.3-0.5-0.5-1.1-0.8-1.7
				C88.9,24.3,87.5,20.7,86,16.9z"/>
			<path class="st0" d="M144.3,19.7c0,0.7-0.5,1.2-0.8,1.6c-0.2,0.2-0.7,0.3-1,0.3c-2.8,0-5.6,0-8.4,0c-0.6,0-1.2,0-1.8,0
				c-0.5,0-0.7-0.2-0.7-0.7c0-0.3,0-0.6,0-0.8c0-0.3,0.2-0.5,0.5-0.5c0.1,0,0.3,0,0.4,0c3.6,0,7.3,0,10.9,0
				C143.8,19.6,144.1,19.6,144.3,19.7z"/>
			<path class="st0" d="M144.4,11.5c-0.3,0.5-0.5,0.8-0.6,1.2c-0.3,0.5-0.7,0.7-1.2,0.7c-2.1,0-4.2,0-6.3,0c-1.3,0-2.5,0-3.8,0
				c-0.7,0-0.8-0.1-0.8-0.8c0-0.2,0-0.5,0-0.7c0.1-0.2,0.3-0.4,0.4-0.4c0.2-0.1,0.5,0,0.7,0c3.5,0,6.9,0,10.4,0
				C143.6,11.4,143.9,11.4,144.4,11.5z"/>
			<path class="st0" d="M144.3,28c-0.1,0.7-0.5,1.2-0.9,1.6c-0.1,0.2-0.5,0.3-0.7,0.3c-3.5,0-6.9,0-10.4,0c-0.6,0-0.7-0.3-0.7-0.8
				c0-0.2,0-0.4,0-0.6c0-0.4,0.1-0.7,0.6-0.7c0.2,0,0.4,0,0.6,0c3.5,0,7,0,10.5,0C143.7,27.9,144,28,144.3,28z"/>
			<path class="st0" d="M23.5,12.6c1.2,0.9,1.8,2.4,1.5,3.6c-0.2,0.7-0.5,1.1-0.9,1.1c-0.4,0-0.9-0.6-1.1-1.2
				C22.8,15.2,23,13.7,23.5,12.6z M23.8,14.1c-0.1,0.9-0.5,1.5-0.1,2.1c0.1,0.1,0.2,0.2,0.3,0.2c0.1,0,0.3-0.1,0.3-0.2
				C24.4,15.5,24.4,14.9,23.8,14.1z"/>
			<path class="st0" d="M30.2,20.5C29,20.8,28,20.9,27,20.4c-0.4-0.2-0.7-0.5-0.9-0.8c-0.2-0.2-0.2-0.7-0.1-0.9
				c0.2-0.3,0.6-0.4,0.9-0.5c0.1,0,0.3,0,0.4,0C28.5,18.7,29.4,19.5,30.2,20.5z M26.9,18.7c-0.1,0.2-0.2,0.3-0.3,0.4
				c0,0.1,0,0.3,0.1,0.4c0.5,0.2,1,0.4,1.5,0.6c0.1,0,0.2,0,0.2-0.1c0-0.1,0-0.2,0-0.2C28,19.4,27.5,19.1,26.9,18.7z"/>
			<path class="st0" d="M19.9,22.4c0.2-1.1,0.7-1.9,1.5-2.5c0.4-0.3,0.9-0.5,1.4-0.6c0.3-0.1,0.8,0.1,1,0.3c0.3,0.4,0.2,0.9-0.2,1.3
				c-0.4,0.4-0.9,0.7-1.4,0.9C21.5,22.1,20.8,22.4,19.9,22.4z M23.1,20.1c-0.1-0.1-0.2-0.2-0.3-0.2c-0.4-0.1-1.3,0.5-1.5,1
				c0,0.1,0,0.2,0.1,0.2c0.5,0.3,0.8-0.2,1.2-0.4c0.2-0.1,0.3-0.2,0.4-0.3C23,20.4,23,20.2,23.1,20.1z"/>
		</g>
	</g>
</g>
</svg>
