<?xml version="1.0" encoding="utf-8"?>
<!-- Generator: Adobe Illustrator 24.3.0, SVG Export Plug-In . SVG Version: 6.00 Build 0)  -->
<svg version="1.1" id="Layer_1" xmlns="http://www.w3.org/2000/svg" xmlns:xlink="http://www.w3.org/1999/xlink" x="0px" y="0px"
	 viewBox="0 0 172.8 58.6" style="enable-background:new 0 0 172.8 58.6;" xml:space="preserve">
<style type="text/css">
	.st0{fill:#C9CACB;}
</style>
<g>
	<g>
		<path class="st0" d="M36.3,30.1c0,2.6,0,5.1,0,7.7c0,1,0,1-1,1c-1.3,0-2.6,0-3.9,0c-0.7,0-1-0.2-1.1-1c-0.9-3.8-1.8-7.6-2.7-11.4
			c-0.1-0.5-0.2-1-0.3-1.5c-0.1-0.2-0.2-0.5-0.4-0.4c-0.3,0.1-0.5,0.2-0.5,0.6c0,0.5,0.1,0.9,0.1,1.4c0.2,3.7,0.5,7.4,0.7,11.1
			c0,1.1,0,1.1-1.1,1.1c-1.1,0-2.3-0.1-3.5,0c-0.8,0-1.1-0.2-1.2-1c-0.8-4.1-1.8-8.3-2.7-12.3c-0.4-1.7-0.7-3.4-1.1-5.1
			c-0.3-1.4-0.2-1.2,0.8-1.7c3.7-1.8,7.5-3.6,11.2-5.3c4.5-2.2,9.1-4.3,13.7-6.6c1-0.5,1.8-0.6,2.8-0.3c4.4,1.1,8.7,2.2,13.2,3.2
			c1.5,0.3,1.5,0.3,1.3,1.8c-0.8,8.6-1.7,17.2-2.6,25.8c0,0.2-0.1,0.3-0.1,0.6c0,0.7-0.2,1-1.1,1c-2.1-0.1-4.2-0.1-6.3,0
			c-0.7,0-0.9-0.2-1-0.9c-0.2-3.2-0.5-6.2-0.6-9.4c-0.2-3.2-0.5-6.2-0.7-9.4c0-0.2-0.1-0.6-0.1-0.8c0-0.2-0.1-0.3-0.3-0.3
			c-0.2,0-0.4,0.1-0.4,0.2c-0.1,0.3-0.2,0.7-0.2,1.1C47,25.1,46.6,31.1,46.1,37c0,0.2-0.1,0.6,0,0.8c0,0.6-0.2,0.9-0.9,0.8
			c-1.5,0-3-0.1-4.5,0c-0.7,0-1-0.2-1.1-1c-0.8-5.1-1.7-10.1-2.6-15.2c-0.1-0.4,0.2-1.1-0.5-1.1c-0.7,0.1-0.5,0.7-0.5,1.2
			c0,2.4,0,4.9,0,7.4C36.2,30.1,36.3,30.1,36.3,30.1z"/>
		<path class="st0" d="M96.4,36.3c-2.7,0-5,0-7.4,0c-0.6,0-0.9-0.2-1-0.8c-0.6-2.8-1.1-5.4-1.8-8.2c-0.1-0.3,0-0.7-0.5-1.1
			c-1.5,0.8-3.1,1.7-4.6,2.5c-0.5,0.2-0.5,0.7-0.5,1.1c-0.1,1.8-0.1,3.5-0.2,5.3c0,1.1,0,1.1-1.1,1.1c-1.8,0-3.5,0-5.3,0
			c-1.1,0-1.1,0-1-1.1c0.2-2.3,0.4-4.5,0.6-6.7c0.5-4.7,1-9.4,1.4-14c0.1-0.9,0.1-0.9-0.8-0.9c-1,0-1.9,0.1-2.8,0.2
			c-0.6,0.1-1-0.1-0.8-0.8c0.2-1.5,0.4-3.1,0.5-4.7c0.1-0.6,0.3-0.8,0.9-0.7c0.2,0,0.3,0,0.6,0c6.1,0,12.1,0,18.3,0
			c1.4,0,1.3-0.2,1.6,1.4c0.8,3.6,1.6,7.4,2.3,11c0.2,1.1,0.2,1.1-0.7,1.6c-0.6,0.3-1.3,0.7-1.9,1.1c-1.4,0.8-1.5,0.5-0.8,2.2
			c1.2,2.8,2.3,5.7,3.6,8.6C95.6,34.3,96,35.2,96.4,36.3z M81.1,22c0.2,0,0.2,0.1,0.3,0.1c2-1,4-1.9,6.1-2.8c0.5-0.2,0.5-0.6,0.5-1
			c-0.2-1.4-0.3-2.8-0.5-4.2c-0.1-0.5-0.2-0.7-0.7-0.7c-1.5,0.1-3.2,0.1-4.7,0.2c-0.6,0-0.7,0.4-0.7,0.9c0,1.9-0.1,3.7-0.2,5.6
			C81.1,20.7,81.1,21.3,81.1,22z"/>
		<path class="st0" d="M132.8,22.2c0.2,4.3,0.4,8.6,0.6,12.9c0,0.2,0,0.5,0,0.6c0,0.4-0.1,0.6-0.5,0.6c-0.2,0-0.5,0-0.6,0
			c-6.3,0-12.7,0-19,0c-0.2,0-0.3,0-0.6,0c-0.6,0.1-0.8-0.3-0.8-0.9c0.1-1.5,0.1-3.2,0.2-4.7c0.2-7.3,0.4-14.6,0.6-21.9
			c0-1.2,0-1.2,1.3-1.2c5.7,0,11.3,0,17.1,0c1.2,0,1.2,0,1.2,1.1C132.4,13.2,132.6,17.7,132.8,22.2L132.8,22.2z M118.9,21.8
			c0.1,0,0.2,0,0.2,0c0,2.5,0,5,0,7.5c0,1,0.1,1,1,1c1.7-0.1,3.4-0.2,5.1-0.2c0.6,0,0.8-0.2,0.8-0.9c0-1.9,0-3.7,0-5.7
			c0-2.9,0-5.9,0.1-8.8c0-1.1,0-1.1-1.1-1.1c-1.7-0.1-3.4-0.2-5.1-0.2c-1,0-1,0-1,1C118.9,16.9,118.9,19.4,118.9,21.8z"/>
		<path class="st0" d="M145.2,7.6c2.8,0,5.7,0,8.5,0c1.1,0,1.1,0,1.2,1.1c0.2,1.4,0.3,2.8,0.5,4.1c0.1,1.1,0.1,1.1-1,1.1
			c-1.7-0.1-3.4-0.2-5.1-0.2c-1.5-0.1-1.5-0.1-1.4,1.4c0.6,6.6,1.3,13.3,2,19.9c0,0.2,0,0.5,0.1,0.6c0.1,0.4-0.1,0.6-0.6,0.6
			c-2.1,0-4.2,0-6.3,0c-0.7,0-0.6-0.5-0.6-1c-0.1-2.3-0.2-4.8-0.2-7.1c-0.2-4.5-0.2-9.1-0.3-13.5c0-1.3,0-1.3-1.4-1.3
			c-1.2,0-2.4-0.1-3.6-0.1c-1.2-0.1-1.2-0.1-1.2-1.2c0-1.1-0.1-2-0.1-3.1c0-1.3,0-1.4,1.3-1.4c2.3,0,4.7,0,7,0
			C144.3,7.6,144.7,7.6,145.2,7.6L145.2,7.6z"/>
		<path class="st0" d="M107.1,22.1c0.1,4.4,0.2,8.7,0.3,13c0,1.2,0,1.2-1.1,1.2c-1.9,0-3.6,0-5.5,0c-0.7,0-0.9-0.2-0.9-0.9
			c0.1-2.8,0.1-5.7,0.2-8.4c0.1-6.1,0.2-12.1,0.4-18.1c0-1.2,0-1.2,1.3-1.2c1.3,0,2.6,0,3.9,0c1.1,0,1.1,0,1.1,1.1
			c0.1,3.8,0.2,7.7,0.3,11.5C107.1,20.8,107.1,21.5,107.1,22.1C107.1,22.1,107.1,22.1,107.1,22.1z"/>
		<path class="st0" d="M38.3,41.7c1.6,0,3.2-0.1,4.6,0c4.5,0.2,9.1,0.5,13.7,0.7c1.2,0.1,1.2,0.1,1.1,1.2c-0.2,2-0.4,4-0.6,6
			c-0.2,1.3-0.1,1.3-1.3,1c-4.2-1.1-8.5-2.1-12.7-3.2c-0.9-0.2-1.9-0.2-2.7-0.8c-0.7-0.6-0.7-1.7-1.1-2.5
			C38.8,43.2,38.6,42.4,38.3,41.7z"/>
		<path class="st0" d="M115.5,45.4c-1,0.9-1.9,1.8-2.8,2.6c-0.9,0.7-0.6,1-1.7,0c-0.9-0.8-1.9-1.7-2.8-2.5c-0.4,0.2-0.3,0.6-0.3,0.9
			c-0.1,1.2-0.1,2.5-0.1,3.7c0,0.6-0.2,0.9-0.8,0.9c-2.6,0.2-2.6,0.2-2.3-2.5c0.2-1.9,0.4-3.9,0.5-5.9c0.1-0.7,0.3-1,1.1-1
			c1.3-0.1,2.2,0.2,3,1.3c0.7,1,1.7,1.9,2.6,2.9c1.1-1.1,2-2.2,3-3.2c0.3-0.3,0.6-0.9,1.1-0.9c0.7,0,1.5,0,2.1,0
			c0.3,0,0.3,0.3,0.4,0.6c0.2,2.6,0.5,5.3,0.7,7.9c0.1,0.5-0.1,0.8-0.6,0.7c-0.1,0-0.2,0-0.2,0c-2.9-0.1-2.3,0.4-2.5-2.3
			c0-1.1,0-2,0-3.1C115.8,45.4,115.6,45.4,115.5,45.4z"/>
		<path class="st0" d="M145.7,50.9c-1.6,0-3.3,0-4.9,0c-0.3,0-0.8,0.1-0.7-0.5c0.1-0.5-0.2-1.3,0.6-1.5c0.3-0.1,0.7,0,1.1-0.1
			c1.9-0.1,3.6-0.1,5.5-0.2c0.3,0,1,0.2,1.1-0.3c0.1-0.7-0.6-0.6-1.1-0.8c-1.6-0.3-3.2-0.6-4.9-0.9c-0.2,0-0.2,0-0.4-0.1
			c-1.5-0.2-1.5-0.2-1.2-1.7c0.2-0.9,0.2-1.8,0.3-2.7c0.1-0.6,0.3-0.7,0.9-0.7c2.7,0,5.3,0,7.9,0c1,0,0.6,0.7,0.8,1.2
			c0.2,0.6-0.2,0.7-0.7,0.7c-1.8,0.1-3.5,0.2-5.3,0.2c-0.4,0-0.9-0.1-0.9,0.6c0,0.6,0.4,0.6,0.8,0.7c1.9,0.3,3.7,0.6,5.6,0.9
			c0.7,0.1,1,0.4,1,1.1c0,1,0.2,1.9,0.2,2.9c0.1,0.9,0.1,0.9-0.8,0.9C148.9,50.9,147.4,50.9,145.7,50.9L145.7,50.9z"/>
		<path class="st0" d="M100.2,50.8c-0.4,0.2-0.9,0.1-1.3,0.2c-1.7,0-1.7,0-2.2-1.6c-0.2-0.6-0.4-0.7-1-0.7c-1.1,0-2,0-3.1,0
			c-0.6,0-1,0.2-1.1,0.9c-0.3,1.5-0.4,1.5-1.9,1.5c-0.5,0-1.1,0.1-1.5-0.1c-0.2-0.4,0-0.7,0.1-1.1c0.6-2.3,1.3-4.8,1.9-7.1
			c0.2-0.7,0.5-1.1,1.3-1.1c1.9,0.1,3.7,0,5.7,0c0.5,0,0.9,0.1,1,0.6C98.8,45.1,99.7,47.9,100.2,50.8
			C100.2,50.7,100.2,50.7,100.2,50.8z M95.9,46.3c0.2-0.5,0-0.8-0.1-1.2c-0.3-1.5-0.3-1.5-1.9-1.5c-1.2,0.1-1.2,0.1-1.5,1.2
			c-0.1,0.3-0.2,0.7-0.2,1.1c-0.1,0.4,0.1,0.6,0.5,0.6C93.8,46.4,94.8,46.6,95.9,46.3z"/>
		<path class="st0" d="M72,50.7c-0.3-0.5-0.1-1.1,0-1.5c0.2-2.2,0.4-4.4,0.6-6.6c0.1-1.1,0.2-1.1,1.1-1.1c2.8,0,5.6,0,8.3,0
			c0.3,0,0.8-0.2,0.9,0.3c0.2,0.5,0.2,1,0.1,1.5c-0.2,0.4-0.6,0.2-0.8,0.2c-1.9,0.1-3.6,0.1-5.5,0.2c-1.3,0.1-1.3,0.1-1.4,1.3
			c-0.1,1-0.1,1.9-0.1,2.8c0,0.5,0.2,0.7,0.7,0.7c1.4,0,2.7,0,4,0.1c0.6,0,0.7-0.2,0.8-0.8c0-0.6-0.3-0.7-0.8-0.7
			c-0.6,0-1.1,0-1.6,0c-0.4,0-0.5-0.2-0.4-0.6c0.2-1.2,0.2-1.2,1.4-1.2c1.1,0,2,0,3.1-0.2c0.6-0.1,0.9,0.2,0.9,0.8c0,0.5,0,1,0,1.5
			c-0.3,0.4-0.2,0.8-0.2,1.3c0,1.6,0,1.6-1.8,1.6c-2.6,0-5.3,0-7.9,0C73,50.5,72.4,50.4,72,50.7z"/>
		<path class="st0" d="M125.4,50.8c-0.6,0.2-0.8,0.1-0.8-0.6c0.1-1.2,0.1-2.3,0.2-3.6c0.4-0.2,0.5-0.5,0.5-0.9c0-0.7,0-1.5,0-2.2
			c0-1.4,0.2-1.5,1.5-1.5c1.9,0,4,0,5.9,0c0.5,0,1.1,0.1,1.5-0.5c0.8,0,0.8,0,0.6,1c-0.2-0.1-0.3-0.1-0.4,0.2c0,0.2,0.2,0.3,0.3,0.4
			c-0.2,0.5-0.6,0.3-0.9,0.3c-1.8,0.1-3.6,0.2-5.3,0.2c-0.7,0-0.8,0.3-0.7,1c0.1,0.6,0.4,0.6,0.8,0.6c1.2,0,2.5,0.1,3.7,0.1
			c0.7,0,0.8,0.3,0.7,0.9c0,0.6,0.1,1.1-0.8,1.1c-1.2-0.1-2.4,0-3.6,0c-0.5,0-0.9,0.1-0.8,0.7c0,0.6,0.2,0.8,0.8,0.8
			c1.9,0,3.6,0.1,5.5,0.1c0.6,0,1.1,0.1,0.8,0.8c-0.4,0.6-1,0.8-1.7,0.8c-1.7-0.1-3.5,0-5.2,0c-0.8,0-1.7,0-2.5,0
			C125.3,50.5,125.1,50.5,125.4,50.8z"/>
		<path class="st0" d="M72,50.7c0.4-0.3,0.9-0.2,1.4-0.2c2.6,0,5.3,0,7.9,0c1.7,0,1.7,0,1.8-1.6c0-0.4-0.1-0.9,0.2-1.3
			c0.1,1.1,0,2.2,0.2,3.2c-0.2,0-0.4,0-0.6,0c-3.6,0.2-7,0.1-10.6,0.1C72.2,50.9,72.1,50.8,72,50.7z"/>
		<path class="st0" d="M134.2,41.6c-0.3,0.6-0.9,0.5-1.5,0.5c-1.9,0-4,0-5.9,0c-1.4,0-1.5,0.2-1.5,1.5c0,0.7,0,1.5,0,2.2
			c0,0.4,0,0.7-0.5,0.9c0-0.2,0-0.4,0-0.6c0.2-0.3,0.2-0.6,0.1-1.1c-0.1-1.1,0-2.2,0.2-3.2c0.3,0,0.6,0,0.8-0.2
			C128.6,41.6,131.3,41.6,134.2,41.6z"/>
		<path class="st0" d="M125.4,50.8c-0.3-0.2-0.2-0.3,0.2-0.3c0.8,0,1.7,0,2.5,0c1.7,0,3.5,0,5.2,0c0.7,0,1.3-0.2,1.7-0.8
			c0.1,0.6,0.3,1.2-0.6,1.2C131.3,50.9,128.4,51,125.4,50.8z"/>
		<path class="st0" d="M134.8,43.2c-0.2-0.1-0.4-0.2-0.3-0.4c0-0.2,0.2-0.2,0.4-0.2C134.8,42.8,134.8,43,134.8,43.2z"/>
		<path class="st0" d="M124.9,45.1c0.2,0.3,0.2,0.7-0.1,1.1C124.7,45.8,124.7,45.4,124.9,45.1z"/>
		<path class="st0" d="M125.7,41.6c-0.2,0.2-0.5,0.2-0.8,0.2C125.2,41.5,125.5,41.6,125.7,41.6z"/>
		<path class="st0" d="M82.9,50.8c0.2,0,0.4-0.1,0.6-0.1C83.3,50.9,83.1,50.9,82.9,50.8z"/>
	</g>
</g>
</svg>
