<?xml version="1.0" encoding="utf-8"?>
<!-- Generator: Adobe Illustrator 24.3.0, SVG Export Plug-In . SVG Version: 6.00 Build 0)  -->
<svg version="1.1" id="Layer_1" xmlns="http://www.w3.org/2000/svg" xmlns:xlink="http://www.w3.org/1999/xlink" x="0px" y="0px"
	 viewBox="0 0 500 167.3" style="enable-background:new 0 0 500 167.3;" xml:space="preserve">
<style type="text/css">
	.st0{fill:#C9CACB;}
</style>
<g id="ukNRhB.tif">
	<g>
		<g>
			<path class="st0" d="M324.9,157.9c-16.6,0-33.2,0-49.9,0c-0.2-0.3-0.5-0.6-0.7-0.9c-2.6-2.6-5.2-5.2-7.8-7.7
				c-2-2-4.1-4.1-6.1-6.1c-0.2-0.2-0.3-0.4-0.7-0.4c0,5,0,10.1,0,15.2c-34.5,0-69.1,0-103.6,0c-0.5-0.5-1-0.9-1.5-1.4
				c-4.3-4.3-8.6-8.6-12.8-12.8c-0.2-0.2-0.4-0.4-0.7-0.6c-0.1-0.1-0.3-0.2-0.4-0.1c-0.1,0.1-0.1,0.3-0.2,0.4c0,0.3,0,0.6,0,0.9
				c0,4.1,0,8.2,0,12.3c0,0.5,0,0.9,0,1.4c-17.9,0-35.8,0-53.8,0c-0.1-0.2-0.2-0.3-0.3-0.5c-0.5-0.5-1-1-1.5-1.5
				c-17-16.9-33.9-33.9-50.9-50.8c-1.4-1.4-1.1-0.8-1.1-2.7c0-29.7,0-59.3,0-89c0-0.5,0-1,0-1.5c14.1,0,28.2,0,42.3,0
				c0.6,0.9,1.2,1.8,1.8,2.6c1.3,1.8,2.5,3.5,3.8,5.3c2.2,3,4.3,6,6.5,9c1.8,2.5,3.6,5.1,5.5,7.6c0.5,0.7,1,1.4,1.5,2
				c0.2,0.3,0.5,0.5,1,0.5c0.3,0,0.7,0,1,0c38.5,0,77,0,115.5,0c0.3,0,0.6,0,0.9,0c0.2,0,0.3,0,0.5,0c0.2,0,0.4-0.2,0.5-0.4
				c0-0.4,0-0.8,0-1.1c0-8,0-16.1,0-24.1c0-0.4,0-0.8,0-1.3c28.1,0,56.3,0,84.4,0c0,0.2,0,0.5,0,0.7c0,8.4,0,16.8,0,25.1
				c0,0.2,0,0.4,0,0.6c0,0.4,0.1,0.6,0.5,0.6c0.3,0,0.7,0,1,0c7.9,0,15.9,0,23.8,0c0.3,0,0.7,0,1,0c0.3,0,0.4,0.2,0.4,0.4
				c0,0.3,0,0.6,0,0.9c0,2.9,0,5.7,0,8.6c0,0.3,0,0.7,0,1c0,0.2,0.2,0.3,0.3,0.2c0.3-0.2,0.5-0.5,0.8-0.7c3.2-3.2,6.4-6.4,9.5-9.5
				c1-1,0.6-0.9,2.2-0.9c10.6,0,21.1,0,31.7,0c0.3,0,0.6,0,0.9,0c0.4,0,0.7-0.1,1-0.5c1.4-1.9,2.8-3.9,4.2-5.8
				c1.2-1.7,2.4-3.3,3.6-5c1.3-1.8,2.5-3.5,3.8-5.3c1.1-1.6,2.3-3.1,3.4-4.7c1.2-1.6,2.4-3.3,3.5-4.9c0.2-0.2,0.3-0.5,0.4-0.8
				c14.1,0,28.2,0,42.3,0c0,0.3,0,0.6,0,0.9c0,8.3,0,16.5,0,24.8c0,0.3,0,0.5,0,0.8c0,0.3,0.2,0.4,0.4,0.4c0.3,0,0.7,0,1,0
				c5.6,0,11.2,0,16.8,0c0.6,0,1,0.1,1.4,0.5c3.9,3.8,7.7,7.7,11.6,11.5c1.8,1.8,3.6,3.6,5.3,5.3c0.5,0.5,1.1,1.1,1.6,1.6
				c0,21.9,0,43.7,0,65.6c-0.4,0.1-0.6,0.5-0.9,0.7c-10.8,10.8-21.7,21.6-32.5,32.5c-0.2,0.2-0.5,0.5-0.7,0.7
				c-0.1,0.1-0.2,0.2-0.2,0.4c-32,0-64.1,0-96.1,0c-0.3-0.3-0.5-0.6-0.8-0.8c-1.4-1.4-2.9-2.7-4.3-4.1c-1.1-1-2.1-2.1-3.2-3.1
				c-2.2-2.2-4.4-4.4-6.5-6.5c-0.2-0.2-0.4-0.5-0.8-0.5c0,0.4,0,0.8,0,1.1c0,4,0,8,0,12C325,156.6,325,157.3,324.9,157.9z
				 M167.5,115.7c14.9,0,29.7,0,44.6,0c1.9,0,1.6,0.2,1.6-1.6c0-21.9,0-43.8,0-65.7c0-0.3,0-0.7,0-1c0-0.1,0-0.2,0-0.3
				c0-0.2-0.1-0.3-0.3-0.3c-0.4,0-0.8,0-1.1,0c-9.3,0-18.6,0-27.9,0c-0.3,0-0.5,0-0.8,0c-0.6,0-0.7,0.1-0.7,0.6c0,0.3,0,0.7,0,1
				c0,11.7,0,23.4,0,35.1c0,0.3,0,0.7,0,1c0,0.1,0,0.2,0,0.3c0,0.1-0.1,0.2-0.2,0.2c-0.2,0-0.4,0-0.6,0c-1.9,0-3.9,0-5.8,0
				c-0.2,0-0.4,0-0.6,0c-0.2,0-0.3-0.1-0.3-0.3c0-0.4,0-0.8,0-1.1c0-11.8,0-23.5,0-35.3c0-0.4,0-0.8,0-1.1c0-0.3-0.1-0.4-0.4-0.4
				c-0.3,0-0.7,0-1,0c-9.3,0-18.7,0-28,0c-1.6,0-1.4-0.1-1.4,1.4c0,11.8,0,23.5,0,35.3c0,0.3,0,0.7,0,1c0,0.1,0,0.2,0,0.3
				c0,0.1-0.1,0.2-0.2,0.2c-0.2,0-0.4,0.1-0.6,0.1c-2,0-4,0-5.9,0c-0.2,0-0.3,0-0.5,0c-0.2,0-0.3-0.1-0.3-0.3c0-0.4,0-0.8,0-1.1
				c0-11.8,0-23.7,0-35.5c0-1.5,0.1-1.4-1.4-1.4c-9.4,0-18.8,0-28.1,0c-1.4,0-1.3-0.1-1.3,1.3c0,17.1,0,34.1,0,51.2
				c0,1.3-0.1,1.1,0.8,2c4.6,4.6,9.1,9.1,13.7,13.7c1.1,1.1,0.7,0.9,2.3,0.9C137.7,115.7,152.6,115.7,167.5,115.7z M394.2,67.6
				c0,15.5,0,31.1,0,46.6c0,1.5-0.1,1.4,1.4,1.4c9.3,0,18.5,0,27.8,0c1.7,0,1.5,0.2,1.5-1.6c0-11.7,0-23.4,0-35.1c0-0.4,0-0.8,0-1.1
				c0-0.3,0.1-0.4,0.4-0.4c0.8,0,1.6,0,2.4,0c1.4,0,2.8,0,4.2,0c0.6,0,0.6,0.1,0.6,0.7c0,0.3,0,0.6,0,0.9c0,11.7,0,23.5,0,35.2
				c0,1.5-0.1,1.4,1.4,1.4c9.3,0,18.5,0,27.8,0c1.7,0,1.5,0.2,1.5-1.5c0-16.9,0-33.8,0-50.6c0-0.3,0-0.5,0-0.8
				c0-0.4-0.1-0.8-0.4-1.1c-0.2-0.1-0.3-0.3-0.5-0.5c-4.5-4.5-9.1-9.1-13.6-13.6c-1-1-0.7-0.9-2.2-0.9c-6.7,0-13.5,0-20.2,0
				c-0.3,0-0.6,0-0.9,0c-0.4,0-0.6-0.1-0.6-0.5c0-0.3,0-0.7,0-1c0-7.9,0-15.8,0-23.7c0-0.3,0-0.6,0-0.9c0-0.6-0.1-0.6-0.7-0.6
				c-0.3,0-0.5,0-0.8,0c-9.2,0-18.5,0-27.7,0c-1.7,0-1.5-0.2-1.5,1.5C394.2,36.8,394.2,52.2,394.2,67.6z M259.7,60.1
				c0,13,0,25.9,0,38.9c0,0.3,0,0.6,0,0.9c0,0.4,0.1,0.7,0.4,1c0.2,0.2,0.4,0.4,0.6,0.6c4.4,4.4,8.9,8.9,13.3,13.3
				c1.1,1.1,0.7,0.9,2.3,0.9c10.8,0,21.7,0,32.5,0c2.4,0,4.9,0,7.3,0c0.3,0,0.6,0,0.9,0c0.2,0,0.3-0.1,0.3-0.3c0-0.4,0-0.8,0-1.1
				c0-8.9,0-17.8,0-26.7c0-0.5,0-1,0-1.5c0-0.2,0-0.4,0-0.6c0-0.2-0.2-0.4-0.3-0.4c-0.3,0-0.5,0-0.8,0c-1.1,0-2.1,0-3.2,0
				c-7,0-14,0-21,0c-0.4,0-0.8,0-1.1,0c-0.2,0-0.4-0.2-0.4-0.4c0-0.2,0-0.5,0-0.7c0-1.8,0-3.7,0-5.5c0-1,0-1,1-1c0.2,0,0.5,0,0.7,0
				c7.9,0,15.9,0,23.8,0c0.3,0,0.7,0,1,0c0.3,0,0.4-0.2,0.4-0.4c0-0.3,0-0.6,0-0.9c0-9.4,0-18.7,0-28.1c0-0.3,0-0.6,0-0.9
				c0-0.3-0.1-0.4-0.4-0.4c-0.3,0-0.7,0-1,0c-5.7,0-11.4,0-17,0c-2.3,0-4.7,0-7,0c-1.4,0-1.3,0.1-1.3-1.4c0-0.2,0-0.4,0-0.6
				c0-7.8,0-15.6,0-23.4c0-1.5,0.1-1.4-1.4-1.4c-9.3,0-18.6,0-27.9,0c-1.7,0-1.5-0.2-1.5,1.5C259.7,34.2,259.7,47.2,259.7,60.1z
				 M40.8,60.1c0,13,0,26.1,0,39.1c0,1.3-0.1,1.1,0.8,2c4.6,4.6,9.1,9.1,13.7,13.7c0.2,0.2,0.3,0.3,0.5,0.5c0.2,0.2,0.4,0.3,0.7,0.3
				c0.2,0,0.4,0,0.6,0c13.4,0,26.8,0,40.3,0c0.2,0,0.4,0,0.6,0c0.4,0,0.6-0.1,0.6-0.5c0-0.3,0-0.6,0-0.9c0-2.2,0-4.4,0-6.6
				c0-7,0-14.1,0-21.1c0-0.4,0-0.8,0-1.1c0-0.2-0.1-0.3-0.3-0.3c-0.4,0-0.8,0-1.1,0c-8,0-16,0-24,0c-0.4,0-0.8,0-1.1,0
				c-0.2,0-0.3-0.1-0.3-0.3c0-0.3,0-0.5,0-0.8c0-1.7,0-3.4,0-5c0-1.6-0.1-1.4,1.4-1.4c8.1,0,16.2,0,24.2,0c1.4,0,1.3,0.1,1.3-1.3
				c0-9.4,0-18.8,0-28.2c0-1.4,0.1-1.3-1.3-1.3c-5.2,0-10.4,0-15.7,0c-2.9,0-5.7,0-8.6,0c-1.6,0-1.4,0.2-1.4-1.5c0-0.3,0-0.5,0-0.8
				c0-7.8,0-15.5,0-23.3c0-1.2,0-1.2-1.2-1.2c-9.4,0-18.8,0-28.3,0c-0.3,0-0.6,0-0.9,0c-0.2,0-0.3,0.1-0.3,0.3c0,0.4,0,0.8,0,1.1
				C40.8,34.2,40.8,47.2,40.8,60.1z M363.3,115.7c7.2,0,14.4,0,21.6,0c0.3,0,0.7,0,1,0c0.4,0,0.5-0.1,0.5-0.6c0-0.3,0-0.6,0-0.9
				c0-9.2,0-18.4,0-27.7c0-1.7,0.2-1.5-1.5-1.5c-9.2,0-18.5,0-27.7,0c-0.3,0-0.7,0-1,0c-0.3,0-0.4-0.1-0.5-0.5c0-0.2,0-0.3,0-0.5
				c0-1.9,0-3.7,0-5.6c0-0.2,0-0.4,0-0.6c0-0.2,0.2-0.4,0.4-0.4c0.4,0,0.8,0,1.1,0c9.4,0,18.8,0,28.1,0c1,0,1,0,1-1
				c0-0.1,0-0.2,0-0.2c0-9.5,0-19,0-28.5c0-1.2,0-1.2-1.2-1.2c-14.6,0-29.3,0-43.9,0c-1.1,0-0.9-0.1-1.7,0.7
				c-0.1,0.1-0.1,0.1-0.2,0.2c-4.5,4.5-9.1,9-13.6,13.6c-1.2,1.2-1,0.7-1,2.4c0,11.8,0,23.6,0,35.4c0,0.2,0,0.5,0,0.7
				c-0.1,0.5,0.2,0.9,0.6,1.3c4.8,4.8,9.6,9.5,14.3,14.3c0.4,0.4,0.8,0.6,1.3,0.6c0.3,0,0.5,0,0.8,0
				C349.1,115.7,356.2,115.7,363.3,115.7z M252.2,81.1c0-11,0-22,0-33c0-0.3,0-0.7,0-1c0-0.3-0.1-0.4-0.4-0.4c-0.3,0-0.7,0-1,0
				c-9.3,0-18.7,0-28,0c-1.6,0-1.4-0.1-1.4,1.4c0,22.1,0,44.2,0,66.3c0,0.3,0,0.5,0,0.8c0,0.4,0.1,0.6,0.5,0.6c0.3,0,0.7,0,1,0
				c9.3,0,18.5,0,27.8,0c1.7,0,1.5,0.2,1.5-1.5C252.2,103.1,252.2,92.1,252.2,81.1z M236.8,19.8c-4.7,0-9.4,0-14.2,0
				c-1.4,0-1.3-0.1-1.3,1.3c0,5.5,0,11,0,16.6c0,0.3,0,0.5,0,0.8c0,0.4,0.1,0.5,0.6,0.5c0.2,0,0.3,0,0.5,0c9.6,0,19.2,0,28.8,0
				c1.1,0,1,0,1-1.1c0-5.7,0-11.3,0-17c0-0.2,0-0.4,0-0.6c0-0.4-0.1-0.5-0.6-0.5c-0.3,0-0.6,0-0.9,0
				C246.1,19.8,241.4,19.8,236.8,19.8z"/>
		</g>
	</g>
</g>
</svg>
